<?xml version="1.0" standalone="no"?>
<!DOCTYPE svg PUBLIC "-//W3C//DTD SVG 1.1//EN" "http://www.w3.org/Graphics/SVG/1.1/DTD/svg11.dtd" >
<svg xmlns="http://www.w3.org/2000/svg" xmlns:xlink="http://www.w3.org/1999/xlink" version="1.1">
<metadata></metadata>
<defs>
<font id="ibm_plex_monoregular" horiz-adv-x="1228" >
<font-face units-per-em="2048" ascent="1597" descent="-451" />
<missing-glyph horiz-adv-x="500" />
<glyph horiz-adv-x="0" />
<glyph horiz-adv-x="682" />
<glyph unicode=" " />
<glyph unicode="!" d="M463 104v37q0 123 151 123q79 0 115.5 -33.5t36.5 -89.5v-37q0 -122 -152 -122q-151 0 -151 122zM524 1014v416h181v-416l-58 -537h-65z" />
<glyph unicode="&#x22;" d="M354 948v568h156v-568h-156zM719 948v568h155v-568h-155z" />
<glyph unicode="#" d="M33 442v136h295l47 274h-269v135h293l78 443h150l-252 -1430h-150l78 442h-270zM602 0l252 1430h150l-78 -443h270v-135h-295l-47 -274h268v-136h-293l-77 -442h-150z" />
<glyph unicode="$" d="M102 227l125 103q75 -94 158 -144.5t188 -60.5v534l-47 9q-372 62 -372 397q0 170 111 271.5t306 115.5v209h127v-209q271 -20 426 -231l-129 -93q-58 77 -130 121t-169 54v-502l62 -10q372 -62 372 -400q0 -179 -113 -288t-319 -126v-208h-127v208q-304 19 -469 250z M319 1065q0 -101 59.5 -158.5t194.5 -85.5v484q-122 -12 -188 -73.5t-66 -166.5zM696 127q129 14 199 82t70 180q0 108 -63 166.5t-206 83.5v-512z" />
<glyph unicode="%" d="M37 0l328 614h147l-328 -614h-147zM41 1092q0 175 83.5 268.5t221.5 93.5t221.5 -93.5t83.5 -268.5t-83.5 -269t-221.5 -94t-221.5 94t-83.5 269zM180 1040q0 -95 45.5 -147.5t120.5 -52.5t120.5 52.5t45.5 147.5v103q0 95 -45.5 147.5t-120.5 52.5t-120.5 -52.5 t-45.5 -147.5v-103zM578 338q0 175 83.5 268.5t221.5 93.5t221.5 -93.5t83.5 -268.5t-83.5 -269t-221.5 -94t-221.5 94t-83.5 269zM717 287q0 -95 45.5 -148t120.5 -53t120.5 53t45.5 148v102q0 95 -45.5 148t-120.5 53t-120.5 -53t-45.5 -148v-102zM717 815l327 615h148 l-328 -615h-147z" />
<glyph unicode="&#x26;" d="M51 371q0 57 13 111.5t41.5 110t82 106t127.5 87.5q-133 172 -133 322q0 152 107.5 249t263.5 97q127 0 217 -65t123 -152l-135 -70q-28 67 -82.5 107.5t-130.5 40.5q-91 0 -146 -56t-55 -145v-16q0 -63 32 -125t113 -164l185 -227l149 -185h11q6 37 11 90t6.5 88.5 t4.5 108t4 96.5h289v-137h-154q-2 -13 -7 -52.5t-7 -53t-7 -45.5t-9 -49.5t-10.5 -44.5t-14.5 -51.5t-18 -51.5l249 -295h-194l-178 211h-11q-30 -109 -119.5 -172.5t-224.5 -63.5q-182 0 -287.5 113t-105.5 283zM221 362q0 -110 73.5 -175.5t192.5 -65.5q87 0 156 36.5 t107 102.5l-357 430q-172 -107 -172 -297v-31z" />
<glyph unicode="'" d="M537 948v568h155v-568h-155z" />
<glyph unicode="(" d="M420 637q0 287 121.5 535t304.5 384h166q-191 -143 -315 -362.5t-124 -468.5v-176q0 -249 124 -469t315 -363h-166q-183 136 -304.5 384.5t-121.5 535.5z" />
<glyph unicode=")" d="M217 -283q191 143 314.5 363t123.5 469v176q0 249 -123.5 468.5t-314.5 362.5h166q183 -136 304.5 -384t121.5 -535t-121.5 -535.5t-304.5 -384.5h-166z" />
<glyph unicode="*" d="M88 676l43 135l408 -131v442h151v-442l408 131l43 -135l-408 -135l254 -348l-117 -87l-256 353l-256 -353l-116 87l254 348z" />
<glyph unicode="+" d="M127 555v139h410v428h155v-428h410v-139h-410v-428h-155v428h-410z" />
<glyph unicode="," d="M418 -289l108 568h265l-236 -568h-137z" />
<glyph unicode="-" d="M317 537v172h594v-172h-594z" />
<glyph unicode="." d="M463 104v37q0 123 151 123q79 0 115.5 -33.5t36.5 -89.5v-37q0 -122 -152 -122q-151 0 -151 122z" />
<glyph unicode="/" d="M184 -283l713 1839h147l-712 -1839h-148z" />
<glyph unicode="0" d="M115 715q0 739 499 739q500 0 500 -739q0 -740 -500 -740q-499 0 -499 740zM293 598q0 -225 77.5 -349t243.5 -124t244 124t78 349v233q0 225 -78 349.5t-244 124.5t-243.5 -124.5t-77.5 -349.5v-233zM487 692v45q0 99 127 99t127 -99v-45q0 -98 -127 -98t-127 98z" />
<glyph unicode="1" d="M109 1075l378 355h269v-1280h377v-150h-959v150h410v1153h-15l-360 -336z" />
<glyph unicode="2" d="M133 1118q22 68 57 124t89.5 106t136 78t182.5 28q209 0 326.5 -114t117.5 -300q0 -152 -80.5 -278t-238.5 -264l-399 -348h776v-150h-955v176l478 430q239 215 239 404v24q0 130 -68.5 200.5t-199.5 70.5q-124 0 -197.5 -63.5t-109.5 -180.5z" />
<glyph unicode="3" d="M98 219l129 98q64 -96 139.5 -144t200.5 -48q150 0 232 70t82 198v17q0 127 -80.5 196.5t-235.5 69.5h-170v147h158q145 0 222 65.5t77 172.5v14q0 111 -71 170.5t-191 59.5q-202 0 -301 -183l-129 99q150 233 434 233q190 0 314 -96t124 -264q0 -132 -77 -217.5 t-201 -116.5v-8q130 -26 218.5 -118t88.5 -243q0 -185 -136 -300.5t-358 -115.5q-90 0 -165.5 20t-131.5 57t-95.5 76t-76.5 91z" />
<glyph unicode="4" d="M70 281v151l618 998h250v-1008h213v-141h-213v-281h-164v281h-704zM223 422h551v874h-8z" />
<glyph unicode="5" d="M150 219l129 98q32 -47 59.5 -78.5t66.5 -59t89 -41t114 -13.5q146 0 225.5 80t79.5 221v16q0 142 -80.5 221.5t-228.5 79.5q-93 0 -151 -30.5t-111 -89.5l-145 20l51 787h778v-150h-639l-41 -547h14q57 79 124.5 117.5t174.5 38.5q191 0 312 -118.5t121 -321.5 q0 -212 -131 -343t-357 -131q-87 0 -159.5 20t-127 57t-92.5 76t-75 91z" />
<glyph unicode="6" d="M131 524q0 122 31.5 242t83.5 217t120.5 185t139 151.5t143.5 110.5h221q-165 -118 -269 -219.5t-179.5 -230.5t-114.5 -292l10 -4q123 205 353 205q190 0 309 -120t119 -320q0 -212 -132.5 -343t-349.5 -131q-226 0 -355.5 147t-129.5 402zM305 426q0 -145 81.5 -225 t227.5 -80t228 80t82 225v16q0 145 -82 225.5t-228 80.5t-227.5 -80.5t-81.5 -225.5v-16z" />
<glyph unicode="7" d="M133 1016v414h954v-152l-548 -1278h-185l559 1282h-626v-266h-154z" />
<glyph unicode="8" d="M113 389q0 141 76.5 229t213.5 125v17q-115 39 -181 126.5t-66 209.5q0 164 121.5 261t336.5 97t337 -97t122 -261q0 -121 -66 -209t-182 -127v-17q137 -37 214 -125t77 -229q0 -184 -130.5 -299t-371.5 -115t-371 115t-130 299zM291 379q0 -121 86 -189.5t237 -68.5 t237.5 68.5t86.5 189.5v45q0 123 -85 190.5t-239 67.5t-238.5 -67.5t-84.5 -190.5v-45zM330 1051q0 -109 73.5 -169.5t210.5 -60.5t211 60.5t74 169.5v28q0 109 -75 169.5t-210 60.5t-209.5 -60.5t-74.5 -169.5v-28z" />
<glyph unicode="9" d="M131 981q0 212 132 342.5t349 130.5q226 0 356 -147t130 -402q0 -122 -31.5 -242t-83 -217t-120.5 -184.5t-139.5 -151t-143.5 -110.5h-222q165 119 269 219.5t180 229.5t115 292l-11 4q-122 -204 -352 -204q-190 0 -309 120t-119 320zM305 987q0 -145 81.5 -225 t227.5 -80t228 80t82 225v17q0 145 -82 225t-228 80t-227.5 -80t-81.5 -225v-17z" />
<glyph unicode=":" d="M463 104v37q0 123 151 123q79 0 115.5 -33.5t36.5 -89.5v-37q0 -122 -152 -122q-151 0 -151 122zM463 915v37q0 123 151 123q79 0 115.5 -33.5t36.5 -89.5v-37q0 -122 -152 -122q-151 0 -151 122z" />
<glyph unicode=";" d="M418 -289l108 568h265l-236 -568h-137zM463 915v37q0 123 151 123q79 0 115.5 -33.5t36.5 -89.5v-37q0 -122 -152 -122q-151 0 -151 122z" />
<glyph unicode="&#x3c;" d="M174 543v164l881 510v-170l-727 -412v-17l727 -411v-174z" />
<glyph unicode="=" d="M127 352v140h975v-140h-975zM127 762v139h975v-139h-975z" />
<glyph unicode="&#x3e;" d="M174 33v170l727 411v17l-727 411v175l881 -510v-164z" />
<glyph unicode="?" d="M158 1122q43 147 158 239.5t300 92.5q195 0 311.5 -105t116.5 -282q0 -75 -22.5 -139t-60 -110t-89 -82t-106.5 -57t-115 -32v-207h-162v322q180 8 278.5 79t98.5 206v28q0 112 -67.5 171t-188.5 59q-118 0 -194 -65.5t-105 -174.5zM426 104v37q0 56 36.5 89.5 t115.5 33.5q151 0 151 -123v-37q0 -122 -151 -122q-152 0 -152 122z" />
<glyph unicode="@" d="M127 614q0 235 31 398t94.5 260t152 139.5t211.5 42.5q120 0 209.5 -38t143.5 -107.5t80 -159.5t26 -201v-762h-145v117h-10q-54 -141 -205 -141q-129 0 -201 109t-72 329q0 221 72 330.5t201 109.5q151 0 205 -141h10v49q0 375 -309 375q-182 0 -261 -139.5t-79 -450.5 v-264q0 -102 10 -181.5t36.5 -154t70 -123.5t114.5 -78.5t166 -29.5h252v-131h-252q-124 0 -217 34t-156.5 99.5t-103 169t-57 235t-17.5 305.5zM594 539q0 -133 43.5 -193.5t130.5 -60.5q75 0 118.5 41t43.5 118v314q0 77 -43.5 118.5t-118.5 41.5q-87 0 -130.5 -60.5 t-43.5 -193.5v-125z" />
<glyph unicode="A" d="M63 0l439 1430h227l438 -1430h-182l-121 408h-502l-120 -408h-179zM403 557h420l-200 690h-19z" />
<glyph unicode="B" d="M180 0v1430h486q182 0 287.5 -100.5t105.5 -268.5q0 -122 -59.5 -198t-163.5 -109v-6q128 -30 202 -112t74 -224q0 -174 -110 -293t-275 -119h-547zM352 150h324q121 0 187.5 55t66.5 162v84q0 106 -67 161.5t-187 55.5h-324v-518zM352 809h295q110 0 171 49.5t61 145.5 v79q0 97 -61.5 147t-170.5 50h-295v-471z" />
<glyph unicode="C" d="M143 715q0 360 130.5 549.5t388.5 189.5q76 0 140 -18t108 -46.5t82 -71.5t62 -84t48 -93l-148 -68q-22 54 -43.5 91t-55.5 71.5t-82 52t-111 17.5q-166 0 -251 -126t-85 -348v-233q0 -221 85 -347t251 -126q63 0 111 17.5t82 51.5t56 71.5t43 90.5l148 -67 q-24 -52 -47.5 -93t-62 -84.5t-82.5 -71.5t-108 -46.5t-140 -18.5q-258 0 -388.5 190t-130.5 550z" />
<glyph unicode="D" d="M195 0v1430h399q260 0 390 -180.5t130 -534.5t-130 -534.5t-390 -180.5h-399zM367 150h219q169 0 257.5 118.5t88.5 335.5v221q0 217 -88.5 336t-257.5 119h-219v-1130z" />
<glyph unicode="E" d="M184 0v1430h881v-150h-709v-481h684v-150h-684v-499h709v-150h-881z" />
<glyph unicode="F" d="M184 0v1430h901v-150h-729v-481h668v-150h-668v-649h-172z" />
<glyph unicode="G" d="M115 705q0 369 127 559t383 190q96 0 172.5 -26t128 -73t85 -98t58.5 -116l-147 -68q-21 53 -43.5 90.5t-56 72t-81.5 52t-110 17.5q-167 0 -250.5 -126t-83.5 -348v-221q0 -489 317 -489q136 0 215.5 83.5t79.5 217.5v147h-301v138h461v-707h-160v190h-10 q-20 -46 -44 -81t-61 -67.5t-92.5 -49.5t-126.5 -17q-229 0 -344.5 187.5t-115.5 542.5z" />
<glyph unicode="H" d="M164 0v1430h172v-631h557v631h172v-1430h-172v649h-557v-649h-172z" />
<glyph unicode="I" d="M172 0v137h356v1155h-356v138h885v-138h-357v-1155h357v-137h-885z" />
<glyph unicode="J" d="M152 299l163 35q23 -97 80.5 -152t169.5 -55q119 0 182.5 68.5t63.5 205.5v879h-516v150h688v-1059q0 -180 -117 -288t-305 -108q-163 0 -270 85t-139 239z" />
<glyph unicode="K" d="M174 0v1430h172v-746h6l189 238l422 508h206l-501 -603l516 -827h-201l-432 700l-205 -241v-459h-172z" />
<glyph unicode="L" d="M246 0v1430h172v-1280h678v-150h-850z" />
<glyph unicode="M" d="M139 0v1430h221l252 -631h13l252 631h213v-1430h-158v717v452h-17l-301 -735l-301 735h-16v-452v-717h-158z" />
<glyph unicode="N" d="M164 0v1430h244l487 -1199h14v1199h156v-1430h-244l-487 1210h-15v-1210h-155z" />
<glyph unicode="O" d="M115 715q0 739 499 739q500 0 500 -739q0 -740 -500 -740q-499 0 -499 740zM297 598q0 -473 317 -473q318 0 318 473v233q0 225 -77 349.5t-241 124.5q-317 0 -317 -474v-233z" />
<glyph unicode="P" d="M184 0v1430h521q196 0 301.5 -108.5t105.5 -303.5t-105.5 -303.5t-301.5 -108.5h-349v-606h-172zM356 756h344q108 0 169 55t61 154v106q0 99 -61 154t-169 55h-344v-524z" />
<glyph unicode="Q" d="M115 715q0 739 499 739q500 0 500 -739q0 -329 -103 -516.5t-315 -216.5v-179h310v-139h-240q-116 0 -175 66t-59 176v76q-417 56 -417 733zM297 598q0 -473 317 -473q318 0 318 473v233q0 225 -77 349.5t-241 124.5q-317 0 -317 -474v-233z" />
<glyph unicode="R" d="M184 0v1430h521q196 0 301.5 -108.5t105.5 -303.5q0 -173 -91.5 -278t-260.5 -122l364 -618h-192l-348 610h-228v-610h-172zM356 756h344q108 0 169 55t61 154v106q0 99 -61 154t-169 55h-344v-524z" />
<glyph unicode="S" d="M92 227l125 103q85 -107 179 -157t220 -50q154 0 237 71t83 201q0 106 -61 164t-205 82l-160 27q-369 62 -369 389q0 193 127 295t350 102q327 0 480 -219l-121 -105q-66 85 -151 131t-210 46q-146 0 -223.5 -62.5t-77.5 -183.5q0 -100 61 -159.5t208 -84.5l153 -26 q373 -65 373 -392q0 -199 -131.5 -311.5t-368.5 -112.5q-336 0 -518 252z" />
<glyph unicode="T" d="M51 1280v150h1127v-150h-478v-1280h-172v1280h-477z" />
<glyph unicode="U" d="M164 612v818h172v-859q0 -54 0.5 -88.5t3.5 -78.5t8.5 -71.5t15 -60.5t24 -52.5t35.5 -39.5t48 -31t63 -17.5t80 -6.5t80 6.5t63.5 17.5t48 31t35 39.5t24.5 52.5t15.5 60.5t8.5 71.5t3.5 78.5t0.5 88.5v859h172v-818q0 -114 -6.5 -195.5t-24 -157.5t-49 -125.5 t-81.5 -87t-121.5 -54.5t-168.5 -17q-83 0 -147.5 13.5t-112 38t-81 66t-55 90t-33.5 118t-16.5 142t-4.5 169.5z" />
<glyph unicode="V" d="M74 1430h182l203 -715l153 -541h11l153 541l203 715h176l-424 -1430h-233z" />
<glyph unicode="W" d="M72 1430h153l60 -820l30 -432h17l188 879h193l188 -879h17l30 432l60 820h149l-113 -1430h-247l-174 854h-17l-174 -854h-248z" />
<glyph unicode="X" d="M53 0l467 729l-440 701h194l166 -277l178 -289h9l176 289l172 277h188l-442 -699l457 -731h-195l-170 285l-188 311h-9l-194 -311l-180 -285h-189z" />
<glyph unicode="Y" d="M35 1430h196l205 -373l174 -326h8l179 326l204 373h193l-494 -869v-561h-172v561z" />
<glyph unicode="Z" d="M98 0v154l809 1126h-774v150h963v-154l-811 -1126h845v-150h-1032z" />
<glyph unicode="[" d="M461 -283v1839h573v-126h-432v-1586h432v-127h-573z" />
<glyph unicode="\" d="M184 1556h148l712 -1839h-147z" />
<glyph unicode="]" d="M195 -156h432v1586h-432v126h573v-1839h-573v127z" />
<glyph unicode="^" d="M92 651l430 779h185l430 -779l-136 -63l-387 700h-8l-387 -700z" />
<glyph unicode="_" d="M123 -195h983v-151h-983v151z" />
<glyph unicode="`" d="M383 1524l149 71l175 -348l-107 -49z" />
<glyph unicode="a" d="M135 297q0 307 455 307h225v105q0 114 -65.5 173.5t-186.5 59.5q-193 0 -282 -156l-111 82q44 91 148 152t255 61q187 0 296.5 -95t109.5 -261v-582h147v-143h-112q-168 0 -189 172h-10q-73 -197 -317 -197q-166 0 -264.5 86.5t-98.5 235.5zM307 279q0 -81 58 -123.5 t161 -42.5q125 0 207 56t82 138v174h-225q-283 0 -283 -159v-43z" />
<glyph unicode="b" d="M195 0v1516h163v-631h9q103 196 325 196q194 0 304 -147t110 -406t-110 -406t-304 -147q-221 0 -325 197h-9v-172h-163zM358 338q0 -102 78 -159.5t193 -57.5q141 0 221 86.5t80 230.5v180q0 144 -80 231t-221 87q-115 0 -193 -57.5t-78 -159.5v-381z" />
<glyph unicode="c" d="M172 528q0 254 127 403.5t350 149.5q148 0 246 -65t145 -178l-131 -70q-30 83 -96.5 127.5t-163.5 44.5q-141 0 -221 -89.5t-80 -232.5v-180q0 -144 80 -232.5t225 -88.5q202 0 287 184l117 -80q-48 -112 -151.5 -179t-254.5 -67q-225 0 -352 150t-127 403z" />
<glyph unicode="d" d="M123 528q0 259 110 406t304 147q222 0 325 -196h8v631h164v-1516h-164v172h-8q-104 -197 -325 -197q-194 0 -304 147t-110 406zM299 438q0 -144 80 -230.5t221 -86.5q114 0 192 57.5t78 159.5v381q0 102 -78 159.5t-192 57.5q-141 0 -221 -87t-80 -231v-180z" />
<glyph unicode="e" d="M137 526q0 252 134.5 403.5t351.5 151.5q211 0 340 -144.5t129 -371.5v-78h-783v-49q0 -142 88.5 -231.5t235.5 -89.5q105 0 183 48.5t120 135.5l121 -82q-49 -110 -160.5 -177t-263.5 -67q-227 0 -361.5 150t-134.5 401zM309 610h606v23q0 140 -81 226.5t-211 86.5 q-135 0 -224.5 -91.5t-89.5 -229.5v-15z" />
<glyph unicode="f" d="M150 918v139h376v217q0 110 59 176t175 66h354v-140h-424v-319h424v-139h-424v-779h377v-139h-897v139h356v779h-376z" />
<glyph unicode="g" d="M137 -172q0 157 172 203v24q-94 46 -94 146q0 76 50 119t141 65v8q-98 43 -152.5 127.5t-54.5 196.5q0 162 112 263t297 101q122 0 209 -43v19q0 66 30.5 104.5t96.5 38.5h195v-143h-238v-72q119 -103 119 -268q0 -162 -113.5 -263.5t-298.5 -101.5q-56 0 -100 8 q-36 -7 -68 -20t-58 -39.5t-26 -60.5q0 -44 43.5 -61t126.5 -17h234q198 0 293.5 -74.5t95.5 -208.5q0 -313 -533 -313q-249 0 -364 66.5t-115 195.5zM293 -133q0 -75 58.5 -122.5t180.5 -47.5h160q144 0 223.5 44.5t79.5 129.5q0 139 -229 139h-367q-106 -44 -106 -143z M371 688q0 -97 59.5 -153t177.5 -56q119 0 179.5 56t60.5 153v60q0 97 -60 151.5t-180 54.5q-118 0 -177.5 -54.5t-59.5 -151.5v-60z" />
<glyph unicode="h" d="M201 0v1516h164v-631h8q85 196 301 196q168 0 267 -106.5t99 -296.5v-678h-163v649q0 287 -250 287q-107 0 -184.5 -52.5t-77.5 -150.5v-733h-164z" />
<glyph unicode="i" d="M217 0v139h381v779h-381v139h545v-918h356v-139h-901zM551 1395v32q0 48 31 76.5t98 28.5t98 -28.5t31 -76.5v-32q0 -48 -31 -76.5t-98 -28.5t-98 28.5t-31 76.5z" />
<glyph unicode="j" d="M190 918v139h695v-1225q0 -110 -59 -176t-175 -66h-442v140h512v1188h-531zM674 1395v32q0 48 31 76.5t98 28.5t98 -28.5t31 -76.5v-32q0 -48 -31 -76.5t-98 -28.5t-98 28.5t-31 76.5z" />
<glyph unicode="k" d="M215 0v1516h164v-957h8l184 174l353 324h200l-438 -414l490 -643h-203l-412 549l-182 -166v-383h-164z" />
<glyph unicode="l" d="M164 0v139h368v1237h-368v140h532v-1377h369v-139h-901z" />
<glyph unicode="m" d="M111 0v1057h151v-123h8q28 69 75 108t128 39q87 0 135.5 -44.5t57.5 -121.5h6q67 166 229 166q123 0 170 -85t47 -263v-733h-151v707q0 135 -28 187t-101 52q-67 0 -107.5 -44t-40.5 -126v-776h-151v707q0 135 -27.5 187t-99.5 52q-68 0 -109 -44t-41 -126v-776h-151z " />
<glyph unicode="n" d="M201 0v1057h164v-172h8q85 196 301 196q168 0 267 -106.5t99 -296.5v-678h-163v649q0 287 -250 287q-107 0 -184.5 -52.5t-77.5 -150.5v-733h-164z" />
<glyph unicode="o" d="M135 528q0 253 128.5 403t350.5 150t351 -150t129 -403t-129 -403t-351 -150t-350.5 150t-128.5 403zM309 453q0 -166 82 -251t223 -85t223.5 85.5t82.5 250.5v151q0 165 -82.5 250.5t-223.5 85.5t-223 -85t-82 -251v-151z" />
<glyph unicode="p" d="M195 -410v1467h163v-172h9q103 196 325 196q194 0 304 -147t110 -406t-110 -406t-304 -147q-221 0 -325 197h-9v-582h-163zM358 338q0 -102 78 -159.5t193 -57.5q141 0 221 86.5t80 230.5v180q0 144 -80 231t-221 87q-115 0 -193 -57.5t-78 -159.5v-381z" />
<glyph unicode="q" d="M123 528q0 259 110 406t304 147q222 0 325 -196h8v172h164v-1467h-164v582h-8q-104 -197 -325 -197q-194 0 -304 147t-110 406zM299 438q0 -144 80 -230.5t221 -86.5q114 0 192 57.5t78 159.5v381q0 102 -78 159.5t-192 57.5q-141 0 -221 -87t-80 -231v-180z" />
<glyph unicode="r" d="M158 0v139h309v779h-309v139h473v-266h10q78 266 356 266h148v-164h-199q-150 0 -232.5 -84t-82.5 -213v-457h409v-139h-882z" />
<glyph unicode="s" d="M137 182l111 97q78 -83 169.5 -124.5t213.5 -41.5q128 0 204 46t76 136q0 40 -15 68.5t-43 45t-57.5 25.5t-70.5 15l-166 24q-40 6 -68 11.5t-69 16.5t-69 24.5t-60 36t-51 50t-32 67t-13 87.5q0 153 117 234t309 81q270 0 430 -170l-107 -100q-110 133 -330 133 q-125 0 -191.5 -43t-66.5 -125q0 -40 15 -68.5t44 -45t58 -25t70 -14.5l166 -25q48 -7 81 -14t79.5 -21t78.5 -34.5t62 -50.5t45.5 -74t15.5 -99q0 -155 -120.5 -242.5t-325.5 -87.5q-306 0 -490 207z" />
<glyph unicode="t" d="M80 918v139h262q53 0 74.5 21t21.5 75v277h158v-373h481v-139h-481v-779h481v-139h-411q-116 0 -175 66t-59 176v676h-352z" />
<glyph unicode="u" d="M188 379v678h164v-649q0 -287 250 -287q107 0 184.5 52.5t77.5 150.5v733h164v-1057h-164v172h-8q-85 -197 -301 -197q-168 0 -267.5 107t-99.5 297z" />
<glyph unicode="v" d="M131 1057h166l152 -443l163 -477h9l163 477l152 443h162l-379 -1057h-209z" />
<glyph unicode="w" d="M61 1057h146l121 -914h18l180 914h181l180 -914h18l121 914h141l-161 -1057h-213l-168 885h-17l-172 -885h-213z" />
<glyph unicode="x" d="M125 0l393 537l-383 520h197l160 -223l126 -177h9l123 177l157 223h189l-387 -518l397 -539h-197l-178 248l-121 168h-8l-117 -168l-172 -248h-188z" />
<glyph unicode="y" d="M109 1057h167l179 -443l157 -401h9l157 401l178 443h164l-524 -1288q-39 -96 -97 -137.5t-173 -41.5h-156v140h246l119 290z" />
<glyph unicode="z" d="M174 0v158l682 760h-659v139h837v-158l-682 -760h703v-139h-881z" />
<glyph unicode="{" d="M215 573v127h160q282 0 282 150q0 32 -13.5 62t-47.5 71q-2 3 -14.5 18.5t-16.5 20t-15.5 20t-15.5 23.5t-13.5 24t-13.5 28l-10 30t-9 34t-5 36.5t-2 42.5v129q0 73 45 120t127 47h361v-126h-391v-158q0 -53 13.5 -96t26 -62t42.5 -59q34 -44 47.5 -63.5t31 -61.5 t17.5 -82q0 -84 -61 -138.5t-165 -68.5v-8q104 -14 165 -68.5t61 -138.5q0 -40 -17.5 -82t-31 -61.5t-47.5 -63.5q-30 -40 -42.5 -59t-26 -62t-13.5 -96v-158h391v-127h-361q-82 0 -127 47t-45 121v129q0 24 2 45.5t7.5 42t9 35t14 34t14 28t17.5 27t16.5 22t18.5 23.5 l16 20q34 41 47.5 71t13.5 62q0 149 -282 149h-160z" />
<glyph unicode="|" d="M543 -283v1839h143v-1839h-143z" />
<glyph unicode="}" d="M215 -156h391v158q0 53 -13.5 96t-26 62t-42.5 59q-34 44 -47.5 63.5t-31 61.5t-17.5 82q0 84 60.5 138.5t164.5 68.5v8q-104 14 -164.5 68.5t-60.5 138.5q0 40 17.5 82t31 61.5t47.5 63.5q30 40 42.5 59t26 62t13.5 96v158h-391v126h360q82 0 127.5 -47t45.5 -120v-129 q0 -24 -2 -45.5t-7.5 -42t-9 -35t-14 -34t-14 -28t-17.5 -27t-16.5 -22t-18.5 -23.5l-16 -20q-62 -76 -62 -133q0 -150 283 -150h160v-127h-160q-283 0 -283 -149q0 -57 62 -133q2 -3 14.5 -18.5t16.5 -20t15.5 -20t15.5 -23.5t13.5 -24t13.5 -28l10 -30t9 -34t5 -36.5 t2 -42.5v-129q0 -73 -45.5 -120.5t-127.5 -47.5h-360v127z" />
<glyph unicode="~" d="M106 537q29 102 103.5 164.5t183.5 62.5q96 0 232 -66q5 -3 30 -15t33 -15.5t29 -13t32 -13t28.5 -9t32 -7.5t28.5 -2q56 0 93 36.5t66 104.5l125 -51q-29 -102 -103 -165t-183 -63q-96 0 -232 66q-6 3 -35 17t-38.5 18.5t-33.5 15t-37.5 14t-33 7.5t-35.5 4 q-56 0 -93.5 -37t-66.5 -105z" />
<glyph unicode="&#xa0;" />
<glyph unicode="&#xa2;" d="M172 528q0 230 105.5 375.5t293.5 171.5v215h127v-211q127 -10 213 -74t129 -167l-131 -70q-56 149 -213 170v-819q168 17 244 182l117 -80q-45 -103 -136 -168.5t-223 -75.5v-210h-127v215q-189 26 -294 171.5t-105 374.5zM348 438q0 -123 58.5 -206.5t166.5 -106.5v807 q-107 -23 -166 -107.5t-59 -206.5v-180z" />
<glyph unicode="&#xa3;" d="M106 586v141h160q-1 4 -10 30t-11 32t-9.5 29.5t-9.5 33t-7.5 30.5t-7.5 34.5t-5 32.5t-4 37t-1 36q0 193 129.5 312.5t349.5 119.5q295 0 446 -233l-129 -93q-60 88 -137.5 132.5t-189.5 44.5q-293 0 -293 -293q0 -51 11 -108.5t19.5 -84.5t30.5 -92h412v-141h-373 q6 -41 6 -80q0 -115 -50 -201t-118 -131v-10h787v-164h-948v215q161 66 161 270q0 46 -10 101h-199z" />
<glyph unicode="&#xa5;" d="M45 1430h191l376 -766h9l376 766h187l-398 -766h289v-142h-379v-381h379v-141h-921v141h378v381h-378v142h288z" />
<glyph unicode="&#xa8;" d="M307 1360v29q0 43 28.5 68.5t88.5 25.5t88.5 -25.5t28.5 -68.5v-29q0 -43 -28.5 -68.5t-88.5 -25.5t-88.5 25.5t-28.5 68.5zM688 1360v29q0 43 28.5 68.5t88.5 25.5t88.5 -25.5t28.5 -68.5v-29q0 -43 -28.5 -68.5t-88.5 -25.5t-88.5 25.5t-28.5 68.5z" />
<glyph unicode="&#xa9;" d="M0 715q0 153 48 281.5t131 215t195 134t240 47.5t240.5 -47.5t195.5 -134t131 -215t48 -281.5t-48 -281.5t-131 -215t-195.5 -134t-240.5 -47.5t-240 47.5t-195 134t-131 215t-48 281.5zM129 653q0 -139 62 -254t173.5 -182t249.5 -67q209 0 347.5 145.5t138.5 357.5v123 q0 139 -62.5 254.5t-174 182.5t-249.5 67t-249.5 -67t-173.5 -182.5t-62 -254.5v-123zM309 715q0 168 84.5 266t231.5 98q183 0 258 -164l-109 -59q-47 107 -149 107q-78 0 -123 -52t-45 -137v-117q0 -87 44.5 -138.5t125.5 -51.5q58 0 96 28.5t68 84.5l102 -64 q-36 -76 -104 -121t-164 -45q-148 0 -232 99t-84 266z" />
<glyph unicode="&#xab;" d="M150 471v164l421 356l52 -117l-304 -321l304 -322l-52 -116zM621 471v164l421 356l52 -117l-303 -321l303 -322l-52 -116z" />
<glyph unicode="&#xad;" d="M317 537v172h594v-172h-594z" />
<glyph unicode="&#xae;" d="M240 1081q0 159 108 266t266 107t266.5 -107t108.5 -266t-108.5 -265.5t-266.5 -106.5t-266 106.5t-108 265.5zM338 1061q0 -120 78 -194t198 -74t198.5 74t78.5 194v41q0 120 -78.5 194t-198.5 74t-198 -74t-78 -194v-41zM471 893v379h174q57 0 89 -31.5t32 -85.5 q0 -38 -20 -66t-56 -40l94 -156h-92l-80 143h-59v-143h-82zM553 1096h74q25 0 39 13t14 36v14q0 23 -14 36t-39 13h-74v-112z" />
<glyph unicode="&#xb4;" d="M522 1247l174 348l150 -71l-217 -326z" />
<glyph unicode="&#xb8;" d="M436 -340l78 84q46 -57 125 -57q40 0 65 16t25 47t-29.5 52t-109.5 32l-58 8l39 199h103l-33 -166l6 -6q41 12 80 12q62 0 100.5 -35.5t38.5 -99.5q0 -83 -65 -126.5t-162 -43.5q-141 0 -203 84z" />
<glyph unicode="&#xbb;" d="M135 231l303 322l-303 321l51 117l422 -356v-164l-422 -356zM606 231l303 322l-303 321l51 117l422 -356v-164l-422 -356z" />
<glyph unicode="&#x2c6;" d="M285 1274l227 293h205l227 -293l-92 -64l-240 240l-239 -240z" />
<glyph unicode="&#x2da;" d="M377 1415q0 101 68.5 168.5t168.5 67.5t169 -67.5t69 -168.5t-69 -168t-169 -67t-168.5 67t-68.5 168zM496 1393q0 -54 31 -83.5t87 -29.5t87.5 29.5t31.5 83.5v45q0 54 -31.5 83t-87.5 29t-87 -29t-31 -83v-45z" />
<glyph unicode="&#x2dc;" d="M270 1382q73 109 195 109q12 0 23 -1t22 -3.5t19.5 -4t19.5 -6t17 -6.5t17.5 -8t15.5 -8t16 -8.5t14 -7.5q92 -49 143 -49q55 0 119 55l67 -82q-73 -109 -194 -109q-15 0 -29 1.5t-28.5 5.5t-23 6.5t-24 10t-20 9.5t-21.5 11t-18 10q-92 49 -143 49q-53 0 -119 -56z" />
<glyph unicode="&#x400;" d="M184 0v1430h881v-150h-709v-481h684v-150h-684v-499h709v-150h-881zM393 1872l150 72l174 -349l-107 -49z" />
<glyph unicode="&#x401;" d="M184 0v1430h881v-150h-709v-481h684v-150h-684v-499h709v-150h-881zM317 1708v29q0 43 28.5 68.5t88.5 25.5t88.5 -25.5t28.5 -68.5v-29q0 -43 -28.5 -68.5t-88.5 -25.5t-88.5 25.5t-28.5 68.5zM698 1708v29q0 43 28.5 68.5t88.5 25.5t88.5 -25.5t28.5 -68.5v-29 q0 -43 -28.5 -68.5t-88.5 -25.5t-88.5 25.5t-28.5 68.5z" />
<glyph unicode="&#x402;" d="M20 1280v150h828v-150h-328v-422h10q119 39 215 39q201 0 293 -108.5t92 -317.5v-565q0 -111 -58.5 -176.5t-174.5 -65.5h-377v150h438v657q0 143 -51.5 210t-167.5 67q-126 0 -219 -41v-707h-172v1280h-328z" />
<glyph unicode="&#x403;" d="M270 0v1430h801v-150h-629v-1280h-172zM578 1595l174 349l149 -72l-217 -326z" />
<glyph unicode="&#x404;" d="M137 715q0 361 131.5 550t393.5 189q78 0 143 -18t110 -46.5t83 -71.5t62 -83.5t48 -93.5l-147 -68q-22 54 -44 91t-56.5 71.5t-84 52t-114.5 17.5q-170 0 -256.5 -126t-86.5 -348v-32h474v-150h-474v-51q0 -222 86.5 -347.5t256.5 -125.5q65 0 114.5 17.5t84 51.5 t57 71.5t43.5 90.5l147 -67q-24 -53 -48 -93.5t-62.5 -84t-83 -71.5t-109.5 -46.5t-143 -18.5q-262 0 -393.5 189.5t-131.5 550.5z" />
<glyph unicode="&#x405;" d="M92 227l125 103q85 -107 179 -157t220 -50q154 0 237 71t83 201q0 106 -61 164t-205 82l-160 27q-369 62 -369 389q0 193 127 295t350 102q327 0 480 -219l-121 -105q-66 85 -151 131t-210 46q-146 0 -223.5 -62.5t-77.5 -183.5q0 -100 61 -159.5t208 -84.5l153 -26 q373 -65 373 -392q0 -199 -131.5 -311.5t-368.5 -112.5q-336 0 -518 252z" />
<glyph unicode="&#x406;" d="M172 0v137h356v1155h-356v138h885v-138h-357v-1155h357v-137h-885z" />
<glyph unicode="&#x407;" d="M172 0v137h356v1155h-356v138h885v-138h-357v-1155h357v-137h-885zM307 1708v29q0 43 28.5 68.5t88.5 25.5t88.5 -25.5t28.5 -68.5v-29q0 -43 -28.5 -68.5t-88.5 -25.5t-88.5 25.5t-28.5 68.5zM688 1708v29q0 43 28.5 68.5t88.5 25.5t88.5 -25.5t28.5 -68.5v-29 q0 -43 -28.5 -68.5t-88.5 -25.5t-88.5 25.5t-28.5 68.5z" />
<glyph unicode="&#x408;" d="M152 299l163 35q23 -97 80.5 -152t169.5 -55q119 0 182.5 68.5t63.5 205.5v879h-516v150h688v-1059q0 -180 -117 -288t-305 -108q-163 0 -270 85t-139 239z" />
<glyph unicode="&#x409;" d="M-4 0v150h96q56 56 83.5 137.5t41.5 272t14 552.5v318h562v-574h32q192 0 296 -111.5t104 -316.5t-104 -316.5t-296 -111.5h-200v1280h-230v-180q0 -358 -17 -565.5t-48 -301.5t-88 -151q-45 -45 -97 -63.5t-127 -18.5h-22zM793 150h32q104 0 163 56.5t59 168.5v106 q0 113 -59 169.5t-163 56.5h-32v-557z" />
<glyph unicode="&#x40a;" d="M98 0v1430h168v-631h318v631h168v-574h73q192 0 296 -111.5t104 -316.5t-104 -316.5t-296 -111.5h-241v649h-318v-649h-168zM752 150h73q104 0 163 56.5t59 168.5v106q0 113 -59 169.5t-163 56.5h-73v-557z" />
<glyph unicode="&#x40b;" d="M20 1280v150h828v-150h-328v-422h10q119 39 215 39q201 0 293 -108.5t92 -317.5v-471h-172v471q0 143 -51.5 210t-167.5 67q-126 0 -219 -41v-707h-172v1280h-328z" />
<glyph unicode="&#x40c;" d="M164 0v1430h172v-631h252l303 631h182l-272 -566q-34 -69 -64 -98t-69 -35v-10q47 -9 77 -42t66 -116l184 -413h133v-150h-129q-123 0 -190 152l-221 499h-252v-651h-172zM494 1595l174 349l149 -72l-217 -326z" />
<glyph unicode="&#x40d;" d="M164 0v1430h172v-721l-29 -414h10l584 1135h164v-1430h-172v721l29 414h-11l-583 -1135h-164zM383 1872l149 72l175 -349l-107 -49z" />
<glyph unicode="&#x40e;" d="M90 1430h184l285 -672l84 -230h4l78 228l250 674h176l-467 -1233q-45 -120 -100.5 -158.5t-175.5 -38.5h-123v150h213l71 184zM272 1874l148 47l82 -217q35 -12 112 -12q78 0 113 12l82 217l147 -47l-57 -117q-50 -100 -116 -145t-169 -45q-102 0 -168 45t-116 145z" />
<glyph unicode="&#x40f;" d="M170 0v1430h172v-1280h545v1280h172v-1430h-365v-307h-157v307h-367z" />
<glyph unicode="&#x410;" d="M63 0l439 1430h227l438 -1430h-182l-121 408h-502l-120 -408h-179zM403 557h420l-200 690h-19z" />
<glyph unicode="&#x411;" d="M174 0v1430h807v-150h-635v-424h352q192 0 296 -111.5t104 -316.5t-104 -316.5t-296 -111.5h-524zM346 150h348q104 0 162.5 56t58.5 169v106q0 113 -58.5 169.5t-162.5 56.5h-348v-557z" />
<glyph unicode="&#x412;" d="M180 0v1430h486q182 0 287.5 -100.5t105.5 -268.5q0 -122 -59.5 -198t-163.5 -109v-6q128 -30 202 -112t74 -224q0 -174 -110 -293t-275 -119h-547zM352 150h324q121 0 187.5 55t66.5 162v84q0 106 -67 161.5t-187 55.5h-324v-518zM352 809h295q110 0 171 49.5t61 145.5 v79q0 97 -61.5 147t-170.5 50h-295v-471z" />
<glyph unicode="&#x413;" d="M270 0v1430h801v-150h-629v-1280h-172z" />
<glyph unicode="&#x414;" d="M29 150h123q94 135 140 341.5t46 518.5v420h668v-1280h174v-457h-158v307h-836v-307h-157v457zM348 150h486v1130h-328v-283q0 -592 -158 -847z" />
<glyph unicode="&#x415;" d="M184 0v1430h881v-150h-709v-481h684v-150h-684v-499h709v-150h-881z" />
<glyph unicode="&#x416;" d="M4 0l172 543q30 94 63 131t83 47v10q-46 10 -78.5 47.5t-55.5 120.5l-151 531h168l184 -631h141v631h168v-631h142l186 631h166l-154 -529q-25 -86 -55.5 -123.5t-75.5 -46.5v-10q50 -10 84.5 -48t63.5 -130l170 -543h-178l-207 651h-142v-651h-168v651h-141l-209 -651 h-176z" />
<glyph unicode="&#x417;" d="M82 227l125 103q152 -207 368 -207q143 0 226.5 68.5t83.5 191.5v43q0 109 -74.5 173.5t-220.5 64.5h-201v149h189q276 0 276 234v43q0 99 -70 158t-202 59q-212 0 -320 -160l-129 84q153 223 449 223q219 0 335.5 -101.5t116.5 -275.5q0 -143 -74.5 -226t-197.5 -103 v-11q136 -16 220.5 -99.5t84.5 -236.5q0 -192 -132.5 -309t-359.5 -117q-313 0 -493 252z" />
<glyph unicode="&#x418;" d="M164 0v1430h172v-721l-29 -414h10l584 1135h164v-1430h-172v721l29 414h-11l-583 -1135h-164z" />
<glyph unicode="&#x419;" d="M164 0v1430h172v-721l-29 -414h10l584 1135h164v-1430h-172v721l29 414h-11l-583 -1135h-164zM272 1874l148 47l82 -217q35 -12 112 -12q78 0 113 12l82 217l147 -47l-57 -117q-50 -100 -116 -145t-169 -45q-102 0 -168 45t-116 145z" />
<glyph unicode="&#x41a;" d="M164 0v1430h172v-631h252l303 631h182l-272 -566q-34 -69 -64 -98t-69 -35v-10q47 -9 77 -42t66 -116l184 -413h133v-150h-129q-123 0 -190 152l-221 499h-252v-651h-172z" />
<glyph unicode="&#x41b;" d="M10 0v150h137q99 95 139 283t40 601v396h741v-1430h-172v1280h-401v-258q0 -288 -24 -479t-65.5 -293t-107.5 -168q-82 -82 -223 -82h-64z" />
<glyph unicode="&#x41c;" d="M139 0v1430h221l252 -631h13l252 631h213v-1430h-158v717v452h-17l-301 -735l-301 735h-16v-452v-717h-158z" />
<glyph unicode="&#x41d;" d="M164 0v1430h172v-631h557v631h172v-1430h-172v649h-557v-649h-172z" />
<glyph unicode="&#x41e;" d="M115 715q0 739 499 739q500 0 500 -739q0 -740 -500 -740q-499 0 -499 740zM297 598q0 -473 317 -473q318 0 318 473v233q0 225 -77 349.5t-241 124.5q-317 0 -317 -474v-233z" />
<glyph unicode="&#x41f;" d="M170 0v1430h889v-1430h-172v1280h-545v-1280h-172z" />
<glyph unicode="&#x420;" d="M184 0v1430h521q196 0 301.5 -108.5t105.5 -303.5t-105.5 -303.5t-301.5 -108.5h-349v-606h-172zM356 756h344q108 0 169 55t61 154v106q0 99 -61 154t-169 55h-344v-524z" />
<glyph unicode="&#x421;" d="M143 715q0 360 130.5 549.5t388.5 189.5q76 0 140 -18t108 -46.5t82 -71.5t62 -84t48 -93l-148 -68q-22 54 -43.5 91t-55.5 71.5t-82 52t-111 17.5q-166 0 -251 -126t-85 -348v-233q0 -221 85 -347t251 -126q63 0 111 17.5t82 51.5t56 71.5t43 90.5l148 -67 q-24 -52 -47.5 -93t-62 -84.5t-82.5 -71.5t-108 -46.5t-140 -18.5q-258 0 -388.5 190t-130.5 550z" />
<glyph unicode="&#x422;" d="M51 1280v150h1127v-150h-478v-1280h-172v1280h-477z" />
<glyph unicode="&#x423;" d="M90 1430h184l285 -672l84 -230h4l78 228l250 674h176l-467 -1233q-45 -120 -100.5 -158.5t-175.5 -38.5h-123v150h213l71 184z" />
<glyph unicode="&#x424;" d="M53 713q0 121 27.5 222.5t83.5 181.5t148.5 128t215.5 55v185h172v-185q123 -7 215.5 -55t149 -128t84 -181.5t27.5 -222.5t-27.5 -222.5t-83.5 -181.5t-149 -128.5t-216 -55.5v-184h-172v184q-123 7 -215.5 55.5t-148.5 128.5t-83.5 181.5t-27.5 222.5zM231 629 q0 -155 73 -250t228 -109v885q-155 -14 -228 -108.5t-73 -249.5v-168zM696 270q155 14 228 109t73 250v168q0 155 -73 249.5t-228 108.5v-885z" />
<glyph unicode="&#x425;" d="M53 0l467 729l-440 701h194l166 -277l178 -289h9l176 289l172 277h188l-442 -699l457 -731h-195l-170 285l-188 311h-9l-194 -311l-180 -285h-189z" />
<glyph unicode="&#x426;" d="M164 0v1430h172v-1280h514v1280h172v-1280h154v-457h-158v307h-854z" />
<glyph unicode="&#x427;" d="M123 1024v406h172v-406q0 -198 64 -278t227 -80t291 49v715h172v-1430h-172v563h-11q-120 -47 -286 -47q-249 0 -353 121.5t-104 386.5z" />
<glyph unicode="&#x428;" d="M98 0v1430h168v-1280h264v1280h168v-1280h265v1280h167v-1430h-1032z" />
<glyph unicode="&#x429;" d="M98 0v1430h168v-1280h232v1280h168v-1280h231v1280h168v-1280h154v-457h-154v307h-967z" />
<glyph unicode="&#x42a;" d="M20 1280v150h500v-574h268q192 0 296 -111.5t104 -316.5t-104 -316.5t-296 -111.5h-440v1280h-328zM520 150h264q104 0 163 56.5t59 168.5v106q0 113 -59 169.5t-163 56.5h-264v-557z" />
<glyph unicode="&#x42b;" d="M98 0v1430h168v-574h144q192 0 295.5 -111t103.5 -317t-103.5 -317t-295.5 -111h-312zM266 150h144q104 0 162.5 56t58.5 169v106q0 113 -58.5 169.5t-162.5 56.5h-144v-557zM963 0v1430h167v-1430h-167z" />
<glyph unicode="&#x42c;" d="M188 0v1430h172v-574h351q192 0 295.5 -111t103.5 -317t-103.5 -317t-295.5 -111h-523zM360 150h347q104 0 162.5 56t58.5 169v106q0 113 -58.5 169.5t-162.5 56.5h-347v-557z" />
<glyph unicode="&#x42d;" d="M121 289l147 67q21 -53 44 -90.5t57.5 -71.5t84 -51.5t113.5 -17.5q169 0 255.5 126t86.5 347v51h-473v150h473v32q0 222 -86.5 348t-255.5 126q-52 0 -94.5 -12.5t-72.5 -32.5t-56 -51t-42.5 -62.5t-33.5 -73.5l-147 68q23 52 47.5 93t63 84t83.5 71.5t110 46.5t142 18 q261 0 393 -189.5t132 -549.5t-132 -550t-393 -190q-95 0 -170.5 26t-127.5 74t-85 97.5t-63 116.5z" />
<glyph unicode="&#x42e;" d="M98 0v1430h168v-631h160q3 159 17 270t39.5 187t68.5 119t97.5 61t133.5 18q80 0 135 -18t100 -65t70 -131t38.5 -212t13.5 -313t-13.5 -313t-38.5 -212.5t-70 -131t-100 -65t-135 -18.5q-100 0 -162.5 28t-106.5 104t-63.5 205.5t-23.5 336.5h-160v-649h-168zM604 537 q0 -131 10 -213.5t34 -125.5t54.5 -58t79.5 -15q39 0 65.5 9t49.5 34t36 71t20.5 119.5t7.5 178.5v356q0 105 -7.5 178.5t-20.5 119.5t-36 71t-49.5 34t-65.5 9q-49 0 -79.5 -15t-54.5 -58t-34 -125.5t-10 -213.5v-356z" />
<glyph unicode="&#x42f;" d="M80 0v150h131l168 350q31 64 63 93t82 38v10q-184 9 -278 109.5t-94 273.5q0 188 104.5 297t294.5 109h502v-1430h-172v614h-258l-226 -469q-38 -80 -82.5 -112.5t-105.5 -32.5h-129zM334 987q0 -113 58.5 -169t162.5 -56h326v518h-326q-104 0 -162.5 -56t-58.5 -169v-68 z" />
<glyph unicode="&#x430;" d="M135 297q0 307 455 307h225v105q0 114 -65.5 173.5t-186.5 59.5q-193 0 -282 -156l-111 82q44 91 148 152t255 61q187 0 296.5 -95t109.5 -261v-582h147v-143h-112q-168 0 -189 172h-10q-73 -197 -317 -197q-166 0 -264.5 86.5t-98.5 235.5zM307 279q0 -81 58 -123.5 t161 -42.5q125 0 207 56t82 138v174h-225q-283 0 -283 -159v-43z" />
<glyph unicode="&#x431;" d="M141 625q0 234 31.5 397.5t99.5 269.5t169.5 157.5t246.5 61.5l324 21v-162l-340 -22q-120 -8 -190.5 -55.5t-111 -154t-57.5 -296.5h11q91 215 315 215q205 0 330 -144.5t125 -398.5q0 -239 -133 -389t-345 -150q-220 0 -347.5 163t-127.5 487zM315 442 q0 -156 82 -240.5t219 -84.5q136 0 220 85.5t84 239.5v129q0 166 -81.5 255t-217.5 89q-150 0 -228 -72t-78 -194v-207z" />
<glyph unicode="&#x432;" d="M219 0v1057h539q128 0 202 -73t74 -196q0 -198 -207 -223v-8q119 -9 181.5 -74.5t62.5 -167.5q0 -134 -81.5 -224.5t-225.5 -90.5h-545zM383 131h340q83 0 128.5 41t45.5 113v47q0 71 -44 111t-118 40h-352v-352zM383 612h332q68 0 106.5 35t38.5 98v46q0 63 -38.5 99 t-106.5 36h-332v-314z" />
<glyph unicode="&#x433;" d="M276 0v1057h758v-139h-594v-918h-164z" />
<glyph unicode="&#x434;" d="M45 139h119q141 228 141 582v336h682v-918h174v-426h-149v287h-817v-287h-150v426zM342 139h481v779h-358v-205q0 -187 -30 -324.5t-93 -249.5z" />
<glyph unicode="&#x435;" d="M137 526q0 252 134.5 403.5t351.5 151.5q211 0 340 -144.5t129 -371.5v-78h-783v-49q0 -142 88.5 -231.5t235.5 -89.5q105 0 183 48.5t120 135.5l121 -82q-49 -110 -160.5 -177t-263.5 -67q-227 0 -361.5 150t-134.5 401zM309 610h606v23q0 140 -81 226.5t-211 86.5 q-135 0 -224.5 -91.5t-89.5 -229.5v-15z" />
<glyph unicode="&#x436;" d="M61 0l117 416q33 114 115 125v8q-78 18 -107 121l-112 387h155l129 -445h181v445h151v-445h180l131 445h154l-115 -387q-18 -55 -41.5 -83.5t-62.5 -37.5v-8q88 -12 117 -125l114 -416h-166l-131 477h-180v-477h-151v477h-181l-133 -477h-164z" />
<glyph unicode="&#x437;" d="M125 180l121 99q103 -162 325 -162q141 0 210 45.5t69 122.5v28q0 79 -52.5 121.5t-150.5 42.5h-285v137h265q98 0 149 39t51 111v24q0 152 -252 152q-222 0 -319 -156l-115 78q74 109 179.5 164t263.5 55q207 0 312 -74.5t105 -209.5q0 -187 -194 -236v-8 q105 -15 161 -80t56 -166q0 -154 -120 -243t-333 -89q-305 0 -446 205z" />
<glyph unicode="&#x438;" d="M195 0v1057h163v-539l-16 -270h8l531 809h153v-1057h-164v539l17 270h-8l-531 -809h-153z" />
<glyph unicode="&#x439;" d="M195 0v1057h163v-539l-16 -270h8l531 809h153v-1057h-164v539l17 270h-8l-531 -809h-153zM264 1526l148 47l82 -217q38 -13 112 -13q75 0 113 13l82 217l147 -47l-57 -117q-50 -100 -116 -145t-169 -45q-102 0 -168 45t-116 145z" />
<glyph unicode="&#x43a;" d="M219 0v1057h164v-443h225l285 443h170l-258 -402q-34 -53 -60.5 -75t-64.5 -31v-8q41 -6 70 -29t59 -74l172 -299h119v-139h-119q-53 0 -92.5 28.5t-77.5 94.5l-203 352h-225v-475h-164z" />
<glyph unicode="&#x43b;" d="M53 0v139h131q64 83 94.5 225t30.5 392v301h703v-1057h-164v918h-379v-166q0 -528 -154 -682q-70 -70 -198 -70h-64z" />
<glyph unicode="&#x43c;" d="M147 0v1057h226l243 -539h13l243 539h209v-1057h-157v662l6 188h-12l-304 -670l-303 670h-12l6 -188v-662h-158z" />
<glyph unicode="&#x43d;" d="M195 0v1057h163v-443h512v443h164v-1057h-164v475h-512v-475h-163z" />
<glyph unicode="&#x43e;" d="M135 528q0 253 128.5 403t350.5 150t351 -150t129 -403t-129 -403t-351 -150t-350.5 150t-128.5 403zM309 453q0 -166 82 -251t223 -85t223.5 85.5t82.5 250.5v151q0 165 -82.5 250.5t-223.5 85.5t-223 -85t-82 -251v-151z" />
<glyph unicode="&#x43f;" d="M199 0v1057h831v-1057h-164v918h-504v-918h-163z" />
<glyph unicode="&#x440;" d="M195 -410v1467h163v-172h9q103 196 325 196q194 0 304 -147t110 -406t-110 -406t-304 -147q-221 0 -325 197h-9v-582h-163zM358 338q0 -102 78 -159.5t193 -57.5q141 0 221 86.5t80 230.5v180q0 144 -80 231t-221 87q-115 0 -193 -57.5t-78 -159.5v-381z" />
<glyph unicode="&#x441;" d="M172 528q0 254 127 403.5t350 149.5q148 0 246 -65t145 -178l-131 -70q-30 83 -96.5 127.5t-163.5 44.5q-141 0 -221 -89.5t-80 -232.5v-180q0 -144 80 -232.5t225 -88.5q202 0 287 184l117 -80q-48 -112 -151.5 -179t-254.5 -67q-225 0 -352 150t-127 403z" />
<glyph unicode="&#x442;" d="M143 918v139h942v-139h-389v-918h-164v918h-389z" />
<glyph unicode="&#x443;" d="M109 1057h167l179 -443l157 -401h9l157 401l178 443h164l-524 -1288q-39 -96 -97 -137.5t-173 -41.5h-156v140h246l119 290z" />
<glyph unicode="&#x444;" d="M90 528q0 211 30.5 334.5t84.5 171t141 47.5q122 0 186 -133h7v506h151v-506h6q64 133 187 133q87 0 141 -47.5t84.5 -171t30.5 -334.5t-30.5 -334.5t-84.5 -171t-141 -47.5q-123 0 -187 134h-6v-519h-151v519h-7q-64 -134 -186 -134q-87 0 -141 47.5t-84.5 171 t-30.5 334.5zM246 436q0 -125 18 -197.5t49.5 -99t83.5 -26.5q68 0 105 39.5t37 115.5v520q0 76 -37 116t-105 40q-52 0 -83.5 -26.5t-49.5 -99t-18 -197.5v-185zM690 268q0 -76 36.5 -115.5t104.5 -39.5q52 0 83.5 26.5t50 99t18.5 197.5v185q0 125 -18.5 197.5t-50 99 t-83.5 26.5q-68 0 -104.5 -40t-36.5 -116v-520z" />
<glyph unicode="&#x445;" d="M125 0l393 537l-383 520h197l160 -223l126 -177h9l123 177l157 223h189l-387 -518l397 -539h-197l-178 248l-121 168h-8l-117 -168l-172 -248h-188z" />
<glyph unicode="&#x446;" d="M172 0v1057h164v-918h493v918h164v-918h174v-426h-149v287h-846z" />
<glyph unicode="&#x447;" d="M164 684v373h164v-359q0 -98 56 -145t179 -47q126 0 201.5 33t75.5 96v422h164v-1057h-164v485h-11q-59 -65 -132.5 -96t-182.5 -31q-171 0 -260.5 82t-89.5 244z" />
<glyph unicode="&#x448;" d="M111 0v1057h151v-922h277v922h151v-922h277v922h151v-1057h-1007z" />
<glyph unicode="&#x449;" d="M111 0v1057h151v-922h277v922h151v-922h277v922h151v-918h111v-426h-144v287h-974z" />
<glyph unicode="&#x44a;" d="M23 918v139h471v-383h299q160 0 254 -91t94 -247q0 -158 -92 -247t-254 -89h-465v918h-307zM494 139h276q197 0 197 156v86q0 154 -197 154h-276v-396z" />
<glyph unicode="&#x44b;" d="M111 0v1057h163v-383h179q160 0 254 -91t94 -247q0 -158 -92 -247t-254 -89h-344zM274 139h156q197 0 197 156v86q0 154 -197 154h-156v-396zM954 0v1057h164v-1057h-164z" />
<glyph unicode="&#x44c;" d="M227 0v1057h164v-383h328q160 0 254 -91t94 -247q0 -158 -92 -247t-254 -89h-494zM391 139h305q197 0 197 156v86q0 154 -197 154h-305v-396z" />
<glyph unicode="&#x44d;" d="M172 217l121 84q86 -184 287 -184q141 0 221 89t80 232v27h-459v137h459v16q0 144 -80.5 233t-225.5 89q-200 0 -276 -172l-127 68q106 245 406 245q225 0 352 -150t127 -403q0 -254 -127 -403.5t-350 -149.5q-152 0 -255.5 66.5t-152.5 175.5z" />
<glyph unicode="&#x44e;" d="M111 0v1057h151v-449h199q4 112 21 194.5t44 136t68.5 85.5t90 44.5t112.5 12.5q86 0 145 -24t104.5 -84.5t67 -170.5t21.5 -274t-21.5 -274t-67 -170.5t-104.5 -84.5t-145 -24q-83 0 -140.5 22t-102.5 77.5t-68 155t-27 249.5h-197v-479h-151zM616 432 q0 -126 21.5 -197.5t59 -97.5t100.5 -26t100.5 26t58.5 97.5t21 197.5v193q0 126 -21 197.5t-58.5 97.5t-100.5 26t-100.5 -26t-59 -97.5t-21.5 -197.5v-193z" />
<glyph unicode="&#x44f;" d="M139 0v139h119l92 174q50 92 123 103v8q-132 6 -211.5 85t-79.5 222q0 151 92.5 238.5t253.5 87.5h476v-1057h-164v408h-256l-146 -273q-38 -70 -81 -102.5t-105 -32.5h-113zM356 698q0 -155 197 -155h287v375h-287q-197 0 -197 -156v-64z" />
<glyph unicode="&#x450;" d="M137 526q0 252 134.5 403.5t351.5 151.5q211 0 340 -144.5t129 -371.5v-78h-783v-49q0 -142 88.5 -231.5t235.5 -89.5q105 0 183 48.5t120 135.5l121 -82q-49 -110 -160.5 -177t-263.5 -67q-227 0 -361.5 150t-134.5 401zM309 610h606v23q0 140 -81 226.5t-211 86.5 q-135 0 -224.5 -91.5t-89.5 -229.5v-15zM387 1524l150 71l174 -348l-107 -49z" />
<glyph unicode="&#x451;" d="M137 526q0 252 134.5 403.5t351.5 151.5q211 0 340 -144.5t129 -371.5v-78h-783v-49q0 -142 88.5 -231.5t235.5 -89.5q105 0 183 48.5t120 135.5l121 -82q-49 -110 -160.5 -177t-263.5 -67q-227 0 -361.5 150t-134.5 401zM309 610h606v23q0 140 -81 226.5t-211 86.5 q-135 0 -224.5 -91.5t-89.5 -229.5v-15zM311 1360v29q0 43 28.5 68.5t88.5 25.5t88.5 -25.5t28.5 -68.5v-29q0 -43 -28.5 -68.5t-88.5 -25.5t-88.5 25.5t-28.5 68.5zM692 1360v29q0 43 28.5 68.5t88.5 25.5t88.5 -25.5t28.5 -68.5v-29q0 -43 -28.5 -68.5t-88.5 -25.5 t-88.5 25.5t-28.5 68.5z" />
<glyph unicode="&#x452;" d="M68 1245v127h133v144h164v-144h313v-127h-313v-360h8q85 196 301 196q168 0 267 -106.5t99 -296.5v-846q0 -111 -58.5 -176.5t-174.5 -65.5h-442v140h512v919q0 287 -250 287q-107 0 -184.5 -52.5t-77.5 -150.5v-733h-164v1245h-133z" />
<glyph unicode="&#x453;" d="M276 0v1057h758v-139h-594v-918h-164zM563 1247l174 348l150 -71l-217 -326z" />
<glyph unicode="&#x454;" d="M172 528q0 254 127 403.5t350 149.5q148 0 246 -65t145 -178l-131 -70q-30 83 -96.5 127.5t-163.5 44.5q-141 0 -221 -89.5t-80 -232.5v-16h459v-137h-459v-27q0 -144 80 -232.5t225 -88.5q202 0 287 184l117 -80q-48 -112 -151.5 -179t-254.5 -67q-225 0 -352 150 t-127 403z" />
<glyph unicode="&#x455;" d="M137 182l111 97q78 -83 169.5 -124.5t213.5 -41.5q128 0 204 46t76 136q0 40 -15 68.5t-43 45t-57.5 25.5t-70.5 15l-166 24q-40 6 -68 11.5t-69 16.5t-69 24.5t-60 36t-51 50t-32 67t-13 87.5q0 153 117 234t309 81q270 0 430 -170l-107 -100q-110 133 -330 133 q-125 0 -191.5 -43t-66.5 -125q0 -40 15 -68.5t44 -45t58 -25t70 -14.5l166 -25q48 -7 81 -14t79.5 -21t78.5 -34.5t62 -50.5t45.5 -74t15.5 -99q0 -155 -120.5 -242.5t-325.5 -87.5q-306 0 -490 207z" />
<glyph unicode="&#x456;" d="M217 0v139h381v779h-381v139h545v-918h356v-139h-901zM551 1395v32q0 48 31 76.5t98 28.5t98 -28.5t31 -76.5v-32q0 -48 -31 -76.5t-98 -28.5t-98 28.5t-31 76.5z" />
<glyph unicode="&#x457;" d="M217 0v139h381v779h-381v139h545v-918h356v-139h-901zM373 1360v29q0 43 28 68.5t88 25.5t88.5 -25.5t28.5 -68.5v-29q0 -43 -28.5 -68.5t-88.5 -25.5t-88 25.5t-28 68.5zM754 1360v29q0 43 28 68.5t88 25.5t88.5 -25.5t28.5 -68.5v-29q0 -43 -28.5 -68.5t-88.5 -25.5 t-88 25.5t-28 68.5z" />
<glyph unicode="&#x458;" d="M190 918v139h695v-1225q0 -110 -59 -176t-175 -66h-442v140h512v1188h-531zM674 1395v32q0 48 31 76.5t98 28.5t98 -28.5t31 -76.5v-32q0 -48 -31 -76.5t-98 -28.5t-98 28.5t-31 76.5z" />
<glyph unicode="&#x459;" d="M4 0v135h100q62 84 92.5 230.5t30.5 410.5v281h521v-383h118q160 0 247 -88.5t87 -247.5q0 -161 -87 -249.5t-247 -88.5h-270v922h-221v-150q0 -548 -154 -702q-70 -70 -186 -70h-31zM748 135h94q196 0 196 160v84q0 160 -196 160h-94v-404z" />
<glyph unicode="&#x45a;" d="M111 0v1057h151v-445h334v445h152v-383h118q160 0 247 -88.5t87 -247.5q0 -161 -87 -249.5t-247 -88.5h-270v477h-334v-477h-151zM748 135h94q196 0 196 160v84q0 160 -196 160h-94v-404z" />
<glyph unicode="&#x45b;" d="M68 1245v127h133v144h164v-144h313v-127h-313v-360h8q85 196 301 196q168 0 267 -106.5t99 -296.5v-678h-163v649q0 287 -250 287q-107 0 -184.5 -52.5t-77.5 -150.5v-733h-164v1245h-133z" />
<glyph unicode="&#x45c;" d="M219 0v1057h164v-443h225l285 443h170l-258 -402q-34 -53 -60.5 -75t-64.5 -31v-8q41 -6 70 -29t59 -74l172 -299h119v-139h-119q-53 0 -92.5 28.5t-77.5 94.5l-203 352h-225v-475h-164zM514 1247l174 348l150 -71l-217 -326z" />
<glyph unicode="&#x45d;" d="M195 0v1057h163v-539l-16 -270h8l531 809h153v-1057h-164v539l17 270h-8l-531 -809h-153zM375 1524l149 71l174 -348l-106 -49z" />
<glyph unicode="&#x45e;" d="M109 1057h167l179 -443l157 -401h9l157 401l178 443h164l-524 -1288q-39 -96 -97 -137.5t-173 -41.5h-156v140h246l119 290zM272 1526l148 47l82 -217q38 -13 112 -13q75 0 113 13l82 217l147 -47l-57 -117q-50 -100 -116 -145t-169 -45q-102 0 -168 45t-116 145z" />
<glyph unicode="&#x45f;" d="M199 0v1057h163v-918h504v918h164v-1057h-340v-287h-149v287h-342z" />
<glyph unicode="&#x472;" d="M115 715q0 739 499 739q500 0 500 -739q0 -740 -500 -740q-499 0 -499 740zM297 598q0 -473 317 -473q318 0 318 473v51h-635v-51zM297 799h635v32q0 225 -77 349.5t-241 124.5q-317 0 -317 -474v-32z" />
<glyph unicode="&#x473;" d="M135 528q0 253 128.5 403t350.5 150t351 -150t129 -403t-129 -403t-351 -150t-350.5 150t-128.5 403zM309 453q0 -166 82 -251t223 -85t223.5 85.5t82.5 250.5v12h-611v-12zM309 604h611q0 165 -82.5 250.5t-223.5 85.5t-223 -85t-82 -251z" />
<glyph unicode="&#x490;" d="M270 0v1430h643v307h158v-457h-629v-1280h-172z" />
<glyph unicode="&#x491;" d="M276 0v1057h609v286h149v-425h-594v-918h-164z" />
<glyph unicode="&#x492;" d="M104 688v131h203v611h801v-150h-629v-461h406v-131h-406v-688h-172v688h-203z" />
<glyph unicode="&#x493;" d="M90 457v127h223v473h758v-139h-594v-334h395v-127h-395v-457h-164v457h-223z" />
<glyph unicode="&#x494;" d="M180 0v1430h801v-150h-629v-508h10q120 47 287 47q249 0 353 -121.5t104 -386.5v-180q0 -241 -89 -354t-265 -113h-256v150h333q105 84 105 317v180q0 198 -64 278.5t-227 80.5t-291 -49v-621h-172z" />
<glyph unicode="&#x495;" d="M225 0v1057h668v-139h-504v-461h10q59 65 133 96t183 31q174 0 262 -90t88 -285v-244q0 -192 -82 -283.5t-227 -91.5h-94v140h172q67 80 67 260v198q0 136 -54.5 192t-180.5 56t-201.5 -33t-75.5 -96v-307h-164z" />
<glyph unicode="&#x496;" d="M-16 0l172 543q31 94 63.5 131t81.5 47v10q-46 10 -77.5 47.5t-55.5 120.5l-152 531h168l185 -631h137v631h168v-631h137l186 631h166l-153 -529q-25 -86 -55.5 -123.5t-75.5 -46.5v-10q50 -10 84 -47.5t63 -130.5l123 -393h154v-457h-154v307h-131l-207 651h-137v-651 h-168v651h-137l-209 -651h-176z" />
<glyph unicode="&#x497;" d="M45 0l117 416q17 59 44.5 89t69.5 36v8q-77 17 -106 121l-113 387h156l129 -445h180v445h152v-445h180l131 445h154l-115 -387q-18 -55 -41.5 -83.5t-62.5 -37.5v-8q87 -12 116 -125l76 -277h111v-426h-144v287h-94l-131 477h-180v-477h-152v477h-180l-133 -477h-164z " />
<glyph unicode="&#x498;" d="M82 227l125 103q152 -207 368 -207q143 0 226.5 68.5t83.5 191.5v43q0 109 -74.5 173.5t-220.5 64.5h-201v149h189q276 0 276 234v43q0 99 -70 158t-202 59q-212 0 -320 -160l-129 84q153 223 449 223q219 0 335.5 -101.5t116.5 -275.5q0 -143 -74.5 -226t-197.5 -103 v-11q136 -16 220.5 -99.5t84.5 -236.5q0 -173 -109.5 -286t-300.5 -135v-287h-157v287q-262 27 -418 247z" />
<glyph unicode="&#x499;" d="M125 180l121 99q103 -162 325 -162q141 0 210 45.5t69 122.5v28q0 79 -52.5 121.5t-150.5 42.5h-285v137h265q98 0 149 39t51 111v24q0 152 -252 152q-222 0 -319 -156l-115 78q74 109 179.5 164t263.5 55q207 0 312 -74.5t105 -209.5q0 -187 -194 -236v-8 q105 -15 161 -80t56 -166q0 -139 -99 -225.5t-278 -101.5v-267h-149v267q-250 20 -373 200z" />
<glyph unicode="&#x49a;" d="M147 0v1430h172v-631h252l303 631h183l-273 -566q-34 -69 -64 -98t-69 -35v-10q47 -9 77.5 -42t66.5 -116l184 -413h166v-457h-158v307q-67 0 -112.5 36.5t-81.5 115.5l-222 499h-252v-651h-172z" />
<glyph unicode="&#x49b;" d="M203 0v1057h164v-443h225l285 443h170l-259 -402q-35 -53 -61 -75t-63 -31v-8q41 -6 70 -29t59 -74l172 -299h131v-426h-150v287q-46 6 -82 35t-69 88l-203 352h-225v-475h-164z" />
<glyph unicode="&#x49c;" d="M123 0v1430h172v-631h115v315h135v-315h96l291 631h182l-260 -564q-56 -122 -133 -135v-10q46 -9 74.5 -41.5t66.5 -120.5l174 -409h133v-150h-129q-125 0 -190 152l-209 499h-96v-315h-135v315h-115v-651h-172z" />
<glyph unicode="&#x49d;" d="M178 0v1057h164v-443h111v242h127v-242h82l272 443h170l-246 -400q-33 -54 -60 -76.5t-65 -31.5v-8q41 -6 70.5 -29t56.5 -74l162 -299h119v-139h-119q-54 0 -94.5 29.5t-79.5 101.5l-186 344h-82v-239h-127v239h-111v-475h-164z" />
<glyph unicode="&#x4a0;" d="M4 1280v150h500v-631h207l278 631h182l-247 -556q-33 -72 -63.5 -103t-74.5 -40v-10q47 -9 77 -42t63 -114l168 -415h133v-150h-129q-125 0 -193 168l-194 483h-207v-651h-172v1280h-328z" />
<glyph unicode="&#x4a1;" d="M23 918v139h471v-443h196l264 443h170l-239 -398q-54 -92 -129 -110v-8q82 -12 133 -109l153 -293h119v-139h-119q-55 0 -96 32t-84 115l-172 328h-196v-475h-164v918h-307z" />
<glyph unicode="&#x4a2;" d="M164 0v1430h172v-631h514v631h172v-1280h154v-457h-158v307h-168v649h-514v-649h-172z" />
<glyph unicode="&#x4a3;" d="M172 0v1057h164v-443h493v443h164v-918h174v-426h-149v287h-189v475h-493v-475h-164z" />
<glyph unicode="&#x4a4;" d="M100 0v1430h172v-631h373v631h555v-150h-383v-1280h-172v649h-373v-649h-172z" />
<glyph unicode="&#x4a5;" d="M111 0v1057h163v-443h371v443h535v-139h-371v-918h-164v475h-371v-475h-163z" />
<glyph unicode="&#x4aa;" d="M143 715q0 360 130.5 549.5t388.5 189.5q76 0 140 -18t108 -46.5t82 -71.5t62 -84t48 -93l-148 -68q-22 54 -43.5 91t-55.5 71.5t-82 52t-111 17.5q-166 0 -251 -126t-85 -348v-233q0 -221 85 -347t251 -126q63 0 111 17.5t82 51.5t56 71.5t43 90.5l148 -67 q-27 -59 -55.5 -104t-71 -90.5t-102.5 -74t-134 -38.5v-289h-157v289q-219 27 -329 214t-110 519z" />
<glyph unicode="&#x4ab;" d="M172 528q0 254 127 403.5t350 149.5q148 0 246 -65t145 -178l-131 -70q-30 83 -96.5 127.5t-163.5 44.5q-141 0 -221 -89.5t-80 -232.5v-180q0 -144 80 -232.5t225 -88.5q202 0 287 184l117 -80q-92 -208 -330 -241v-267h-149v267q-192 25 -299 171t-107 377z" />
<glyph unicode="&#x4ae;" d="M35 1430h196l205 -373l174 -326h8l179 326l204 373h193l-494 -869v-561h-172v561z" />
<glyph unicode="&#x4af;" d="M131 1057h166l152 -414l163 -459h9l163 459l152 414h162l-402 -1057v-410h-164v410z" />
<glyph unicode="&#x4b0;" d="M35 1430h196l205 -373l174 -326h8l179 326l204 373h193l-494 -869h306v-131h-306v-430h-172v430h-305v131h305z" />
<glyph unicode="&#x4b1;" d="M131 1057h166l152 -414l163 -459h9l163 459l152 414h162l-402 -1057h277v-127h-277v-283h-164v283h-276v127h276z" />
<glyph unicode="&#x4b2;" d="M41 0l467 729l-440 701h194l166 -277l178 -289h8l177 289l172 277h188l-442 -699l364 -581h166v-457h-158v307h-110l-172 289l-189 311h-8l-194 -311l-179 -289h-188z" />
<glyph unicode="&#x4b3;" d="M125 0l393 537l-383 520h197l160 -223l126 -177h9l123 177l157 223h189l-387 -518l295 -400h174v-426h-150v287h-119l-178 248l-121 168h-8l-117 -168l-172 -248h-188z" />
<glyph unicode="&#x4b6;" d="M109 1024v406h172v-406q0 -198 62.5 -278t221.5 -80q169 0 285 49v715h172v-1280h154v-457h-158v307h-168v563h-10q-107 -47 -281 -47q-245 0 -347.5 121.5t-102.5 386.5z" />
<glyph unicode="&#x4b7;" d="M154 684v373h163v-359q0 -98 56.5 -145t179.5 -47q127 0 201.5 33t74.5 96v422h164v-918h174v-426h-149v287h-189v485h-10q-59 -66 -132 -96.5t-183 -30.5q-171 0 -260.5 82t-89.5 244z" />
<glyph unicode="&#x4b8;" d="M123 1024v406h172v-406q0 -180 51 -261.5t178 -94.5v344h135v-344q113 5 218 47v715h172v-1430h-172v563h-11q-90 -36 -207 -45v-285h-135v285q-218 12 -309.5 133.5t-91.5 372.5z" />
<glyph unicode="&#x4b9;" d="M164 684v373h164v-359q0 -181 192 -190v295h127v-295q89 9 141 41.5t52 85.5v422h164v-1057h-164v483h-11q-75 -87 -182 -112v-189h-127v176q-356 0 -356 326z" />
<glyph unicode="&#x4ba;" d="M180 0v1430h172v-564h10q120 47 287 47q249 0 353 -121t104 -386v-406h-172v406q0 198 -64 278t-227 80t-291 -49v-715h-172z" />
<glyph unicode="&#x4bb;" d="M201 0v1516h164v-631h8q85 196 301 196q168 0 267 -106.5t99 -296.5v-678h-163v649q0 287 -250 287q-107 0 -184.5 -52.5t-77.5 -150.5v-733h-164z" />
<glyph unicode="&#x4c0;" d="M172 0v137h356v1155h-356v138h885v-138h-357v-1155h357v-137h-885z" />
<glyph unicode="&#x4c1;" d="M4 0l172 543q30 94 63 131t83 47v10q-46 10 -78.5 47.5t-55.5 120.5l-151 531h168l184 -631h141v631h168v-631h142l186 631h166l-154 -529q-25 -86 -55.5 -123.5t-75.5 -46.5v-10q50 -10 84.5 -48t63.5 -130l170 -543h-178l-207 651h-142v-651h-168v651h-141l-209 -651 h-176zM272 1874l148 47l82 -217q35 -12 112 -12q78 0 113 12l82 217l147 -47l-57 -117q-50 -100 -116 -145t-169 -45q-102 0 -168 45t-116 145z" />
<glyph unicode="&#x4c2;" d="M61 0l117 416q33 114 115 125v8q-78 18 -107 121l-112 387h155l129 -445h181v445h151v-445h180l131 445h154l-115 -387q-18 -55 -41.5 -83.5t-62.5 -37.5v-8q88 -12 117 -125l114 -416h-166l-131 477h-180v-477h-151v477h-181l-133 -477h-164zM272 1526l148 47l82 -217 q38 -13 112 -13q75 0 113 13l82 217l147 -47l-57 -117q-50 -100 -116 -145t-169 -45q-102 0 -168 45t-116 145z" />
<glyph unicode="&#x4cf;" d="M164 0v139h368v1237h-368v140h901v-140h-369v-1237h369v-139h-901z" />
<glyph unicode="&#x4d0;" d="M63 0l439 1430h227l438 -1430h-182l-121 408h-502l-120 -408h-179zM272 1874l148 47l82 -217q35 -12 112 -12q78 0 113 12l82 217l147 -47l-57 -117q-50 -100 -116 -145t-169 -45q-102 0 -168 45t-116 145zM403 557h420l-200 690h-19z" />
<glyph unicode="&#x4d1;" d="M135 297q0 307 455 307h225v105q0 114 -65.5 173.5t-186.5 59.5q-193 0 -282 -156l-111 82q44 91 148 152t255 61q187 0 296.5 -95t109.5 -261v-582h147v-143h-112q-168 0 -189 172h-10q-73 -197 -317 -197q-166 0 -264.5 86.5t-98.5 235.5zM238 1526l147 47l82 -217 q38 -13 113 -13q74 0 112 13l82 217l148 -47l-58 -117q-50 -100 -116 -145t-168 -45q-103 0 -169 45t-116 145zM307 279q0 -81 58 -123.5t161 -42.5q125 0 207 56t82 138v174h-225q-283 0 -283 -159v-43z" />
<glyph unicode="&#x4d2;" d="M63 0l439 1430h227l438 -1430h-182l-121 408h-502l-120 -408h-179zM307 1708v29q0 43 28.5 68.5t88.5 25.5t88.5 -25.5t28.5 -68.5v-29q0 -43 -28.5 -68.5t-88.5 -25.5t-88.5 25.5t-28.5 68.5zM403 557h420l-200 690h-19zM688 1708v29q0 43 28.5 68.5t88.5 25.5 t88.5 -25.5t28.5 -68.5v-29q0 -43 -28.5 -68.5t-88.5 -25.5t-88.5 25.5t-28.5 68.5z" />
<glyph unicode="&#x4d3;" d="M135 297q0 307 455 307h225v105q0 114 -65.5 173.5t-186.5 59.5q-193 0 -282 -156l-111 82q44 91 148 152t255 61q187 0 296.5 -95t109.5 -261v-582h147v-143h-112q-168 0 -189 172h-10q-73 -197 -317 -197q-166 0 -264.5 86.5t-98.5 235.5zM272 1360v29q0 43 28.5 68.5 t88.5 25.5t88.5 -25.5t28.5 -68.5v-29q0 -43 -28.5 -68.5t-88.5 -25.5t-88.5 25.5t-28.5 68.5zM307 279q0 -81 58 -123.5t161 -42.5q125 0 207 56t82 138v174h-225q-283 0 -283 -159v-43zM653 1360v29q0 43 28.5 68.5t88.5 25.5t88.5 -25.5t28.5 -68.5v-29 q0 -43 -28.5 -68.5t-88.5 -25.5t-88.5 25.5t-28.5 68.5z" />
<glyph unicode="&#x4d4;" d="M41 0l422 1430h684v-142h-344v-493h319v-142h-319v-512h344v-141h-508v412h-311l-115 -412h-172zM365 553h274v754h-64z" />
<glyph unicode="&#x4d5;" d="M20 283q0 159 93.5 240t271.5 81h129v109q0 131 -42 188t-124 57q-73 0 -117.5 -41t-76.5 -120l-109 67q36 93 115 155t194 62q181 0 254 -159h6q75 159 254 159q160 0 242 -122.5t82 -360.5v-111h-528v-51q0 -149 51 -239.5t145 -90.5q127 0 197 183l119 -56 q-35 -106 -118 -182t-202 -76q-103 0 -179.5 61t-119.5 173h-6q-27 -117 -95.5 -175.5t-166.5 -58.5q-119 0 -194 81t-75 227zM170 281q0 -88 34 -133.5t113 -45.5q95 0 146 61t51 152v172h-106q-238 0 -238 -176v-30zM664 604h393v70q0 144 -51 216.5t-146 72.5 t-145.5 -72.5t-50.5 -216.5v-70z" />
<glyph unicode="&#x4d6;" d="M184 0v1430h881v-150h-709v-481h684v-150h-684v-499h709v-150h-881zM283 1874l147 47l82 -217q35 -12 113 -12q77 0 112 12l82 217l148 -47l-58 -117q-50 -100 -116 -145t-168 -45q-103 0 -169 45t-116 145z" />
<glyph unicode="&#x4d7;" d="M137 526q0 252 134.5 403.5t351.5 151.5q211 0 340 -144.5t129 -371.5v-78h-783v-49q0 -142 88.5 -231.5t235.5 -89.5q105 0 183 48.5t120 135.5l121 -82q-49 -110 -160.5 -177t-263.5 -67q-227 0 -361.5 150t-134.5 401zM276 1526l148 47l82 -217q38 -13 112 -13 q75 0 113 13l82 217l148 -47l-58 -117q-50 -100 -116 -145t-169 -45q-102 0 -168 45t-116 145zM309 610h606v23q0 140 -81 226.5t-211 86.5q-135 0 -224.5 -91.5t-89.5 -229.5v-15z" />
<glyph unicode="&#x4d8;" d="M115 715v45h817v67q0 229 -80 353.5t-260 124.5q-38 0 -70.5 -6t-70 -24t-67.5 -48t-60 -82t-52 -123l-143 68q47 178 168.5 271t306.5 93q266 0 388 -189.5t122 -547.5q0 -742 -500 -742q-499 0 -499 740zM293 598q0 -225 77.5 -349t241.5 -124t242 124t78 349v20h-639 v-20z" />
<glyph unicode="&#x4d9;" d="M137 492v77h783v49q0 142 -88.5 232t-235.5 90q-105 0 -183 -48.5t-120 -135.5l-121 82q49 109 160.5 176t263.5 67q227 0 361.5 -150t134.5 -401q0 -252 -134.5 -403.5t-351.5 -151.5q-211 0 -340 145t-129 372zM313 424q0 -139 81 -226t212 -87q135 0 224.5 91.5 t89.5 229.5v14h-607v-22z" />
<glyph unicode="&#x4dc;" d="M4 0l172 543q30 94 63 131t83 47v10q-46 10 -78.5 47.5t-55.5 120.5l-151 531h168l184 -631h141v631h168v-631h142l186 631h166l-154 -529q-25 -86 -55.5 -123.5t-75.5 -46.5v-10q50 -10 84.5 -48t63.5 -130l170 -543h-178l-207 651h-142v-651h-168v651h-141l-209 -651 h-176zM307 1708v29q0 43 28.5 68.5t88.5 25.5t88.5 -25.5t28.5 -68.5v-29q0 -43 -28.5 -68.5t-88.5 -25.5t-88.5 25.5t-28.5 68.5zM688 1708v29q0 43 28.5 68.5t88.5 25.5t88.5 -25.5t28.5 -68.5v-29q0 -43 -28.5 -68.5t-88.5 -25.5t-88.5 25.5t-28.5 68.5z" />
<glyph unicode="&#x4dd;" d="M61 0l117 416q33 114 115 125v8q-78 18 -107 121l-112 387h155l129 -445h181v445h151v-445h180l131 445h154l-115 -387q-18 -55 -41.5 -83.5t-62.5 -37.5v-8q88 -12 117 -125l114 -416h-166l-131 477h-180v-477h-151v477h-181l-133 -477h-164zM307 1360v29 q0 43 28.5 68.5t88.5 25.5t88.5 -25.5t28.5 -68.5v-29q0 -43 -28.5 -68.5t-88.5 -25.5t-88.5 25.5t-28.5 68.5zM688 1360v29q0 43 28.5 68.5t88.5 25.5t88.5 -25.5t28.5 -68.5v-29q0 -43 -28.5 -68.5t-88.5 -25.5t-88.5 25.5t-28.5 68.5z" />
<glyph unicode="&#x4de;" d="M82 227l125 103q152 -207 368 -207q143 0 226.5 68.5t83.5 191.5v43q0 109 -74.5 173.5t-220.5 64.5h-201v149h189q276 0 276 234v43q0 99 -70 158t-202 59q-212 0 -320 -160l-129 84q153 223 449 223q219 0 335.5 -101.5t116.5 -275.5q0 -143 -74.5 -226t-197.5 -103 v-11q136 -16 220.5 -99.5t84.5 -236.5q0 -192 -132.5 -309t-359.5 -117q-313 0 -493 252zM274 1708v29q0 43 28.5 68.5t88.5 25.5t88.5 -25.5t28.5 -68.5v-29q0 -43 -28.5 -68.5t-88.5 -25.5t-88.5 25.5t-28.5 68.5zM655 1708v29q0 43 28.5 68.5t88.5 25.5t88.5 -25.5 t28.5 -68.5v-29q0 -43 -28.5 -68.5t-88.5 -25.5t-88.5 25.5t-28.5 68.5z" />
<glyph unicode="&#x4df;" d="M125 180l121 99q103 -162 325 -162q141 0 210 45.5t69 122.5v28q0 79 -52.5 121.5t-150.5 42.5h-285v137h265q98 0 149 39t51 111v24q0 152 -252 152q-222 0 -319 -156l-115 78q74 109 179.5 164t263.5 55q207 0 312 -74.5t105 -209.5q0 -187 -194 -236v-8 q105 -15 161 -80t56 -166q0 -154 -120 -243t-333 -89q-305 0 -446 205zM276 1360v29q0 43 28.5 68.5t88.5 25.5t88.5 -25.5t28.5 -68.5v-29q0 -43 -28.5 -68.5t-88.5 -25.5t-88.5 25.5t-28.5 68.5zM657 1360v29q0 43 28.5 68.5t88.5 25.5t88.5 -25.5t28.5 -68.5v-29 q0 -43 -28.5 -68.5t-88.5 -25.5t-88.5 25.5t-28.5 68.5z" />
<glyph unicode="&#x4e2;" d="M164 0v1430h172v-721l-29 -414h10l584 1135h164v-1430h-172v721l29 414h-11l-583 -1135h-164zM328 1653v139h573v-139h-573z" />
<glyph unicode="&#x4e3;" d="M195 0v1057h163v-539l-16 -270h8l531 809h153v-1057h-164v539l17 270h-8l-531 -809h-153zM319 1305v139h574v-139h-574z" />
<glyph unicode="&#x4e4;" d="M164 0v1430h172v-721l-29 -414h10l584 1135h164v-1430h-172v721l29 414h-11l-583 -1135h-164zM307 1708v29q0 43 28.5 68.5t88.5 25.5t88.5 -25.5t28.5 -68.5v-29q0 -43 -28.5 -68.5t-88.5 -25.5t-88.5 25.5t-28.5 68.5zM688 1708v29q0 43 28.5 68.5t88.5 25.5 t88.5 -25.5t28.5 -68.5v-29q0 -43 -28.5 -68.5t-88.5 -25.5t-88.5 25.5t-28.5 68.5z" />
<glyph unicode="&#x4e5;" d="M195 0v1057h163v-539l-16 -270h8l531 809h153v-1057h-164v539l17 270h-8l-531 -809h-153zM299 1360v29q0 43 28.5 68.5t88.5 25.5t88 -25.5t28 -68.5v-29q0 -43 -28 -68.5t-88 -25.5t-88.5 25.5t-28.5 68.5zM680 1360v29q0 43 28.5 68.5t88.5 25.5t88 -25.5t28 -68.5v-29 q0 -43 -28 -68.5t-88 -25.5t-88.5 25.5t-28.5 68.5z" />
<glyph unicode="&#x4e6;" d="M115 715q0 739 499 739q500 0 500 -739q0 -740 -500 -740q-499 0 -499 740zM297 598q0 -473 317 -473q318 0 318 473v233q0 225 -77 349.5t-241 124.5q-317 0 -317 -474v-233zM307 1708v29q0 43 28.5 68.5t88.5 25.5t88.5 -25.5t28.5 -68.5v-29q0 -43 -28.5 -68.5 t-88.5 -25.5t-88.5 25.5t-28.5 68.5zM688 1708v29q0 43 28.5 68.5t88.5 25.5t88.5 -25.5t28.5 -68.5v-29q0 -43 -28.5 -68.5t-88.5 -25.5t-88.5 25.5t-28.5 68.5z" />
<glyph unicode="&#x4e7;" d="M135 528q0 253 128.5 403t350.5 150t351 -150t129 -403t-129 -403t-351 -150t-350.5 150t-128.5 403zM307 1360v29q0 43 28.5 68.5t88.5 25.5t88.5 -25.5t28.5 -68.5v-29q0 -43 -28.5 -68.5t-88.5 -25.5t-88.5 25.5t-28.5 68.5zM309 453q0 -166 82 -251t223 -85 t223.5 85.5t82.5 250.5v151q0 165 -82.5 250.5t-223.5 85.5t-223 -85t-82 -251v-151zM688 1360v29q0 43 28.5 68.5t88.5 25.5t88.5 -25.5t28.5 -68.5v-29q0 -43 -28.5 -68.5t-88.5 -25.5t-88.5 25.5t-28.5 68.5z" />
<glyph unicode="&#x4e8;" d="M115 715q0 739 499 739q500 0 500 -739q0 -740 -500 -740q-499 0 -499 740zM297 598q0 -473 317 -473q318 0 318 473v51h-635v-51zM297 799h635v32q0 225 -77 349.5t-241 124.5q-317 0 -317 -474v-32z" />
<glyph unicode="&#x4e9;" d="M135 528q0 253 128.5 403t350.5 150t351 -150t129 -403t-129 -403t-351 -150t-350.5 150t-128.5 403zM309 453q0 -166 82 -251t223 -85t223.5 85.5t82.5 250.5v12h-611v-12zM309 604h611q0 165 -82.5 250.5t-223.5 85.5t-223 -85t-82 -251z" />
<glyph unicode="&#x4ee;" d="M90 1430h184l285 -672l84 -230h4l78 228l250 674h176l-467 -1233q-45 -120 -100.5 -158.5t-175.5 -38.5h-123v150h213l71 184zM328 1653v139h573v-139h-573z" />
<glyph unicode="&#x4ef;" d="M109 1057h167l179 -443l157 -401h9l157 401l178 443h164l-524 -1288q-39 -96 -97 -137.5t-173 -41.5h-156v140h246l119 290zM328 1305v139h573v-139h-573z" />
<glyph unicode="&#x4f0;" d="M90 1430h184l285 -672l84 -230h4l78 228l250 674h176l-467 -1233q-45 -120 -100.5 -158.5t-175.5 -38.5h-123v150h213l71 184zM307 1708v29q0 43 28.5 68.5t88.5 25.5t88.5 -25.5t28.5 -68.5v-29q0 -43 -28.5 -68.5t-88.5 -25.5t-88.5 25.5t-28.5 68.5zM688 1708v29 q0 43 28.5 68.5t88.5 25.5t88.5 -25.5t28.5 -68.5v-29q0 -43 -28.5 -68.5t-88.5 -25.5t-88.5 25.5t-28.5 68.5z" />
<glyph unicode="&#x4f1;" d="M109 1057h167l179 -443l157 -401h9l157 401l178 443h164l-524 -1288q-39 -96 -97 -137.5t-173 -41.5h-156v140h246l119 290zM307 1360v29q0 43 28.5 68.5t88.5 25.5t88.5 -25.5t28.5 -68.5v-29q0 -43 -28.5 -68.5t-88.5 -25.5t-88.5 25.5t-28.5 68.5zM688 1360v29 q0 43 28.5 68.5t88.5 25.5t88.5 -25.5t28.5 -68.5v-29q0 -43 -28.5 -68.5t-88.5 -25.5t-88.5 25.5t-28.5 68.5z" />
<glyph unicode="&#x4f2;" d="M90 1430h184l285 -672l84 -230h4l78 228l250 674h176l-467 -1233q-45 -120 -100.5 -158.5t-175.5 -38.5h-123v150h213l71 184zM367 1593l174 349l141 -68l-217 -326zM694 1593l174 349l142 -68l-217 -326z" />
<glyph unicode="&#x4f3;" d="M109 1057h167l179 -443l157 -401h9l157 401l178 443h164l-524 -1288q-39 -96 -97 -137.5t-173 -41.5h-156v140h246l119 290zM367 1245l174 348l141 -67l-217 -326zM694 1245l174 348l142 -67l-217 -326z" />
<glyph unicode="&#x4f4;" d="M123 1024v406h172v-406q0 -198 64 -278t227 -80t291 49v715h172v-1430h-172v563h-11q-120 -47 -286 -47q-249 0 -353 121.5t-104 386.5zM279 1708v29q0 43 28 68.5t88 25.5t88.5 -25.5t28.5 -68.5v-29q0 -43 -28.5 -68.5t-88.5 -25.5t-88 25.5t-28 68.5zM659 1708v29 q0 43 28.5 68.5t88.5 25.5t88.5 -25.5t28.5 -68.5v-29q0 -43 -28.5 -68.5t-88.5 -25.5t-88.5 25.5t-28.5 68.5z" />
<glyph unicode="&#x4f5;" d="M164 684v373h164v-359q0 -98 56 -145t179 -47q126 0 201.5 33t75.5 96v422h164v-1057h-164v485h-11q-59 -65 -132.5 -96t-182.5 -31q-171 0 -260.5 82t-89.5 244zM276 1360v29q0 43 28.5 68.5t88.5 25.5t88.5 -25.5t28.5 -68.5v-29q0 -43 -28.5 -68.5t-88.5 -25.5 t-88.5 25.5t-28.5 68.5zM657 1360v29q0 43 28.5 68.5t88.5 25.5t88.5 -25.5t28.5 -68.5v-29q0 -43 -28.5 -68.5t-88.5 -25.5t-88.5 25.5t-28.5 68.5z" />
<glyph unicode="&#x4f8;" d="M98 0v1430h168v-574h144q192 0 295.5 -111t103.5 -317t-103.5 -317t-295.5 -111h-312zM266 150h144q104 0 162.5 56t58.5 169v106q0 113 -58.5 169.5t-162.5 56.5h-144v-557zM307 1708v29q0 43 28.5 68.5t88.5 25.5t88.5 -25.5t28.5 -68.5v-29q0 -43 -28.5 -68.5 t-88.5 -25.5t-88.5 25.5t-28.5 68.5zM688 1708v29q0 43 28.5 68.5t88.5 25.5t88.5 -25.5t28.5 -68.5v-29q0 -43 -28.5 -68.5t-88.5 -25.5t-88.5 25.5t-28.5 68.5zM963 0v1430h167v-1430h-167z" />
<glyph unicode="&#x4f9;" d="M111 0v1057h163v-383h179q160 0 254 -91t94 -247q0 -158 -92 -247t-254 -89h-344zM274 139h156q197 0 197 156v86q0 154 -197 154h-156v-396zM307 1360v29q0 43 28.5 68.5t88.5 25.5t88.5 -25.5t28.5 -68.5v-29q0 -43 -28.5 -68.5t-88.5 -25.5t-88.5 25.5t-28.5 68.5z M688 1360v29q0 43 28.5 68.5t88.5 25.5t88.5 -25.5t28.5 -68.5v-29q0 -43 -28.5 -68.5t-88.5 -25.5t-88.5 25.5t-28.5 68.5zM954 0v1057h164v-1057h-164z" />
<glyph unicode="&#x2000;" horiz-adv-x="972" />
<glyph unicode="&#x2001;" horiz-adv-x="1944" />
<glyph unicode="&#x2002;" horiz-adv-x="972" />
<glyph unicode="&#x2003;" horiz-adv-x="1944" />
<glyph unicode="&#x2004;" horiz-adv-x="648" />
<glyph unicode="&#x2005;" horiz-adv-x="486" />
<glyph unicode="&#x2006;" horiz-adv-x="324" />
<glyph unicode="&#x2007;" horiz-adv-x="324" />
<glyph unicode="&#x2008;" horiz-adv-x="243" />
<glyph unicode="&#x2009;" horiz-adv-x="388" />
<glyph unicode="&#x200a;" horiz-adv-x="108" />
<glyph unicode="&#x2010;" d="M317 537v172h594v-172h-594z" />
<glyph unicode="&#x2011;" d="M317 537v172h594v-172h-594z" />
<glyph unicode="&#x2012;" d="M317 537v172h594v-172h-594z" />
<glyph unicode="&#x2013;" d="M123 547v151h983v-151h-983z" />
<glyph unicode="&#x2014;" d="M0 547v151h1229v-151h-1229z" />
<glyph unicode="&#x2018;" d="M399 948l236 568h137l-108 -568h-265z" />
<glyph unicode="&#x2019;" d="M457 948l108 568h264l-235 -568h-137z" />
<glyph unicode="&#x201a;" d="M418 -289l108 568h265l-236 -568h-137z" />
<glyph unicode="&#x201c;" d="M166 948l235 568h138l-109 -568h-264zM657 948l236 568h137l-108 -568h-265z" />
<glyph unicode="&#x201d;" d="M223 948l109 568h264l-236 -568h-137zM715 948l108 568h264l-235 -568h-137z" />
<glyph unicode="&#x201e;" d="M223 -289l109 568h264l-236 -568h-137zM715 -289l108 568h264l-235 -568h-137z" />
<glyph unicode="&#x2022;" d="M365 594v57q0 98 60 155.5t189 57.5q130 0 190 -58t60 -155v-57q0 -97 -60 -155t-190 -58q-129 0 -189 57.5t-60 155.5z" />
<glyph unicode="&#x2026;" d="M90 96v60q0 48 31 76t98 28t98 -28t31 -76v-60q0 -48 -31 -76t-98 -28t-98 28t-31 76zM485 96v60q0 48 31 76t98 28t98 -28t31 -76v-60q0 -48 -31 -76t-98 -28t-98 28t-31 76zM881 96v60q0 48 31 76t98 28t98 -28t31 -76v-60q0 -48 -31 -76t-98 -28t-98 28t-31 76z" />
<glyph unicode="&#x202f;" horiz-adv-x="388" />
<glyph unicode="&#x2039;" d="M348 471v164l422 356l51 -117l-303 -321l303 -322l-51 -116z" />
<glyph unicode="&#x203a;" d="M408 231l303 322l-303 321l51 117l422 -356v-164l-422 -356z" />
<glyph unicode="&#x205f;" horiz-adv-x="486" />
<glyph unicode="&#x20ac;" d="M143 715q0 360 130.5 549.5t388.5 189.5q76 0 140 -18t108 -46.5t82 -71.5t62 -84t48 -93l-144 -66q-21 54 -43.5 92t-56.5 72.5t-83 52t-113 17.5q-144 0 -228 -94t-106 -265h467v-141h-473v-188h473v-142h-467q22 -170 106 -264t228 -94q64 0 113 17.5t83 51.5t56.5 72 t43.5 92l144 -65q-24 -52 -47.5 -93t-62 -84.5t-82.5 -71.5t-108 -46.5t-140 -18.5q-258 0 -388.5 190t-130.5 550z" />
<glyph unicode="&#x2122;" d="M33 1335v95h459v-95h-177v-477h-106v477h-176zM578 858v572h133l133 -275h6l133 275h127v-572h-98v260l2 170h-8l-162 -319l-162 319h-8l2 -170v-260h-98z" />
<glyph unicode="&#x25fc;" horiz-adv-x="1054" d="M0 0v1055h1055v-1055h-1055z" />
</font>
</defs>
</svg>
